<?xml version="1.0"?>
<svg xmlns="http://www.w3.org/2000/svg" viewBox="0 0 64 64" width="512" height="512"><g id="outline"><path d="M61,2H3A1,1,0,0,0,2,3V45a1,1,0,0,0,1,1H26V61a1,1,0,0,0,1,1H37a1,1,0,0,0,1-1V46H61a1,1,0,0,0,1-1V3A1,1,0,0,0,61,2ZM36,60H28V46h8ZM60,44H4V4H60Z"/><rect x="44" y="24" width="2" height="2"/><path d="M7,42H57a1,1,0,0,0,1-1V7a1,1,0,0,0-1-1H7A1,1,0,0,0,6,7V41A1,1,0,0,0,7,42ZM41.625,28.219,37.468,24.9C40.38,22.175,46.694,20,52,20a11.446,11.446,0,0,1,4,.623V35.377A11.446,11.446,0,0,1,52,36c-5.6,0-13.018-2.657-15.3-6H41a1,1,0,0,0,.625-1.781ZM25,19a1,1,0,1,1,1-1A1,1,0,0,1,25,19ZM8,8H24v7.184a2.982,2.982,0,0,0,0,5.632V31a4,4,0,0,0,8,0V27a1,1,0,0,0-1.707-.707l-3,3,1.414,1.414L30,29.414V31a2,2,0,0,1-4,0V20.816a2.982,2.982,0,0,0,0-5.632V8H56V18.528A13.955,13.955,0,0,0,52,18c-5.584,0-13.586,2.436-16.777,6.37a1,1,0,0,0,.152,1.411L38.149,28H35.136a1,1,0,0,0-.967,1.256C35.6,34.674,45.521,38,52,38a13.955,13.955,0,0,0,4-.528V40H8Z"/><path d="M18,29a2.986,2.986,0,0,1-1.565-.385A4.952,4.952,0,0,0,14,28.03a4.955,4.955,0,0,0-2.437.585A2.986,2.986,0,0,1,10,29v2a4.955,4.955,0,0,0,2.437-.585A2.986,2.986,0,0,1,14,30.03a2.986,2.986,0,0,1,1.565.385A4.955,4.955,0,0,0,18,31a4.942,4.942,0,0,0,2.434-.585A2.977,2.977,0,0,1,22,30.03v-2a4.95,4.95,0,0,0-2.435.585A2.973,2.973,0,0,1,18,29Z"/><path d="M18,23a2.89,2.89,0,0,1-1.553-.395A4.874,4.874,0,0,0,14,22a4.873,4.873,0,0,0-2.448.605A2.892,2.892,0,0,1,10,23v2a4.873,4.873,0,0,0,2.448-.605A2.892,2.892,0,0,1,14,24a2.9,2.9,0,0,1,1.555.395A4.865,4.865,0,0,0,18,25,4.867,4.867,0,0,0,20.45,24.4,2.879,2.879,0,0,1,22,24V22a4.867,4.867,0,0,0-2.446.605A2.879,2.879,0,0,1,18,23Z"/><path d="M14,18.03a2.986,2.986,0,0,1,1.565.385A4.955,4.955,0,0,0,18,19a4.937,4.937,0,0,0,2.433-.585l-.874-1.8A2.973,2.973,0,0,1,18,17a2.986,2.986,0,0,1-1.565-.385A4.952,4.952,0,0,0,14,16.03a4.955,4.955,0,0,0-2.437.585A2.986,2.986,0,0,1,10,17v2a4.955,4.955,0,0,0,2.437-.585A2.986,2.986,0,0,1,14,18.03Z"/><path d="M14,12a2.9,2.9,0,0,1,1.555.395A4.865,4.865,0,0,0,18,13,4.867,4.867,0,0,0,20.45,12.4,2.879,2.879,0,0,1,22,12V10a4.867,4.867,0,0,0-2.446.605A2.879,2.879,0,0,1,18,11a2.89,2.89,0,0,1-1.553-.395A4.874,4.874,0,0,0,14,10a4.873,4.873,0,0,0-2.448.605A2.892,2.892,0,0,1,10,11v2a4.873,4.873,0,0,0,2.448-.605A2.892,2.892,0,0,1,14,12Z"/><path d="M18,35a2.89,2.89,0,0,1-1.553-.4A4.874,4.874,0,0,0,14,34a4.873,4.873,0,0,0-2.448.6A2.892,2.892,0,0,1,10,35v2a4.873,4.873,0,0,0,2.448-.6A2.892,2.892,0,0,1,14,36a2.9,2.9,0,0,1,1.555.4A4.865,4.865,0,0,0,18,37a4.867,4.867,0,0,0,2.446-.6A2.879,2.879,0,0,1,22,36V34a4.867,4.867,0,0,0-2.446.6A2.879,2.879,0,0,1,18,35Z"/><path d="M33.2,13a7.212,7.212,0,0,0,2.957-.566,6,6,0,0,1,4.479,0,8.023,8.023,0,0,0,5.92,0,6.013,6.013,0,0,1,4.486,0A7.224,7.224,0,0,0,54,13V11a5.287,5.287,0,0,1-2.243-.434,8.026,8.026,0,0,0-5.921,0,6.008,6.008,0,0,1-4.484,0,8.01,8.01,0,0,0-5.915,0,6,6,0,0,1-4.479,0A7.217,7.217,0,0,0,28,10v2a5.271,5.271,0,0,1,2.24.434A7.221,7.221,0,0,0,33.2,13Z"/><path d="M38.155,18.434a5.994,5.994,0,0,1,4.486,0l.711-1.871a8.01,8.01,0,0,0-5.915,0,6,6,0,0,1-4.479,0A7.217,7.217,0,0,0,30,16v2a5.271,5.271,0,0,1,2.24.434,8.01,8.01,0,0,0,5.915,0Z"/><polygon points="34 51 32 51 32 56 30 56 30 58 34 58 34 51"/></g></svg>
