<?xml version="1.0" encoding="iso-8859-1"?>
<!-- Generator: Adobe Illustrator 19.0.0, SVG Export Plug-In . SVG Version: 6.00 Build 0)  -->
<svg xmlns="http://www.w3.org/2000/svg" xmlns:xlink="http://www.w3.org/1999/xlink" version="1.1" id="Capa_1" x="0px" y="0px" viewBox="0 0 512 512" style="enable-background:new 0 0 512 512;" xml:space="preserve">
<g>
	<g>
		<path d="M346,332h-22.457c-6.377,0-11.911-4.321-13.458-10.508c-1.333-5.334,0.563-12.406,4.142-15.443    C361.647,265.806,391,185.929,391,135C391,60.561,330.439,0,256,0S121,60.561,121,135c0,50.929,29.353,130.806,76.772,171.049    c3.579,3.037,5.476,10.109,4.143,15.443c-1.547,6.187-7.081,10.508-13.458,10.508H166c-74.439,0-135,60.561-135,135v30    c0,8.284,6.716,15,15,15h420c8.284,0,15-6.716,15-15v-30C481,392.561,420.439,332,346,332z M451,482H61v-15    c0-57.897,47.103-105,105-105h22.457c20.168,0,37.67-13.666,42.563-33.232c4.11-16.442-1.579-35.19-13.835-45.592    C178.181,250.076,151,178.519,151,135c0-57.897,47.103-105.2,105-105.2c57.897,0,105,47.303,105,105.2    c0,43.519-27.181,115.076-66.185,148.176c-12.256,10.401-17.945,29.149-13.835,45.592C285.873,348.334,303.375,362,323.543,362    H346c57.897,0,105,47.103,105,105V482z"/>
	</g>
</g>
<g>
</g>
<g>
</g>
<g>
</g>
<g>
</g>
<g>
</g>
<g>
</g>
<g>
</g>
<g>
</g>
<g>
</g>
<g>
</g>
<g>
</g>
<g>
</g>
<g>
</g>
<g>
</g>
<g>
</g>
</svg>
