<?xml version="1.0"?>
<svg xmlns="http://www.w3.org/2000/svg" viewBox="0 0 64 64" width="512" height="512"><g id="outline"><rect x="23" y="45" width="2" height="2"/><rect x="27" y="45" width="2" height="2"/><path d="M59,29H55V26a5.006,5.006,0,0,0-5-5H40a5.009,5.009,0,0,0-4.9,4H35V19h1a5.006,5.006,0,0,0,5-5V8a3,3,0,0,0-6,0v5H34a5.006,5.006,0,0,0-5,5v7H23V22a5.006,5.006,0,0,0-5-5H14a5.006,5.006,0,0,0-5,5v7H5a3,3,0,0,0,0,6h5a5.006,5.006,0,0,0,5-5V23h2v3c0,.018,0,.083,0,.1l2,19.983A5.28,5.28,0,0,0,24,51H40A5.275,5.275,0,0,0,45,46.1L46.905,27H49v3a5.006,5.006,0,0,0,5,5h5a3,3,0,0,0,0-6ZM40,23v2H37.171A3.006,3.006,0,0,1,40,23ZM37,8a1,1,0,0,1,2,0v2H37Zm0,4h2v2a2.951,2.951,0,0,1-.3,1.285l-1.7-1.7Zm-3,3h1.586l1.7,1.7A2.951,2.951,0,0,1,36,17H34.414l-1.7-1.7A2.951,2.951,0,0,1,34,15Zm-3,3a2.951,2.951,0,0,1,.3-1.285l1.7,1.7V20H31Zm0,4h2v3H31ZM6,33H5a1,1,0,0,1,0-2H6Zm4,0H8V31H9.586l1.7,1.7A2.951,2.951,0,0,1,10,33Zm3-3a2.951,2.951,0,0,1-.3,1.285l-1.7-1.7V27h2Zm0-5H11V22a2.951,2.951,0,0,1,.3-1.285l1.7,1.7Zm1.414-4-1.7-1.7A2.951,2.951,0,0,1,14,19h4a2.951,2.951,0,0,1,1.285.3l-1.7,1.7ZM19,25V22.414l1.7-1.7A2.951,2.951,0,0,1,21,22v3ZM43,45.917A3.333,3.333,0,0,1,40,49H24a3.339,3.339,0,0,1-3-3.1L19.6,31.933l2.492,5.481A1,1,0,0,0,23,38h2v2H39V38h2a1,1,0,0,0,.91-.586L44.4,31.932ZM27,38V36H37v2Zm13.356-2H39V34H25v2H23.644l-4.091-9H44.447ZM45,25H42V23h3Zm4.586,0H47V23h3a2.951,2.951,0,0,1,1.285.3ZM51,26.414l1.7-1.7A2.951,2.951,0,0,1,53,26v3H51ZM55,33H54a3,3,0,0,1-2.816-2H55Zm4,0H57V31h2a1,1,0,0,1,0,2Z"/><path d="M11,54a5.006,5.006,0,0,0,5,5H26a3,3,0,0,0,0-6H17V50a5.006,5.006,0,0,0-5-5H7a3,3,0,0,0,0,6h4Zm12,1h3a1,1,0,0,1,0,2H23Zm-4,0h2v2H19Zm-2,0v2H16a3,3,0,0,1-2.816-2Zm-2-5v3H13V50.414l1.7-1.7A2.951,2.951,0,0,1,15,50ZM8,49H7a1,1,0,0,1,0-2H8Zm2,0V47h2a2.951,2.951,0,0,1,1.285.3l-1.7,1.7Z"/><path d="M39.219,45H38v2h2a1,1,0,0,0,.97-.758l1-4-1.94-.484Z"/></g></svg>
