<?xml version="1.0"?>
<svg xmlns="http://www.w3.org/2000/svg" viewBox="0 0 64 64" width="512" height="512" fill="white"><g id="outline"><path d="M62,20.5A4.505,4.505,0,0,0,57.5,16H56a1,1,0,0,0,0,2h1.5a2.5,2.5,0,0,1,0,5H53.816a2.982,2.982,0,0,0-5.632,0H45.9a3.83,3.83,0,0,0-3.732-3H19V17.816A2.993,2.993,0,0,0,18,12v2a1,1,0,1,1-1,1H15a3,3,0,0,0,2,2.816V20H3a1,1,0,0,0-.895,1.447l4.021,8.039A13.118,13.118,0,0,0,17,36.339v1.845a2.982,2.982,0,0,0,0,5.632V47.5a2.5,2.5,0,0,1-5,0V46a1,1,0,0,0-2,0v1.5a4.481,4.481,0,0,0,8,2.794A4.481,4.481,0,0,0,26,47.5V46a1,1,0,0,0-2,0v1.5a2.5,2.5,0,0,1-5,0V43.816a2.982,2.982,0,0,0,0-5.632V36.271a12.723,12.723,0,0,0,4.5-1.4l6.887-3.935,12.776-3.407A3.832,3.832,0,0,0,45.81,25h2.374a2.982,2.982,0,0,0,5.632,0H57.5a2.5,2.5,0,0,1,0,5H56a1,1,0,0,0,0,2h1.5a4.481,4.481,0,0,0,2.794-8A4.476,4.476,0,0,0,62,20.5ZM18,42a1,1,0,1,1,1-1A1,1,0,0,1,18,42ZM42.643,25.593l-12.9,3.441a.987.987,0,0,0-.238.1l-6.972,3.984A10.9,10.9,0,0,1,7.9,28.553L4.618,22H6.307a24.812,24.812,0,0,0,7.068,9.781l1.25-1.562A22.685,22.685,0,0,1,8.487,22H42.172a1.827,1.827,0,0,1,.471,3.593ZM51,25a1,1,0,1,1,1-1A1,1,0,0,1,51,25Z"/><rect x="13" y="24" width="2" height="2"/><path d="M19.6,23.2l-1.2,1.6a3.8,3.8,0,0,1,1.371,2.421,4.076,4.076,0,0,1-1.478,3.072l1.414,1.414a5.944,5.944,0,0,0,2.059-4.627A5.8,5.8,0,0,0,19.6,23.2Z"/><path d="M24.555,23.168l-1.117,1.659a2.222,2.222,0,0,1,.89,1.413,2.751,2.751,0,0,1-1.035,2.053l1.414,1.414a4.574,4.574,0,0,0,1.609-3.677A4.164,4.164,0,0,0,24.555,23.168Z"/></g></svg>
