<?xml version="1.0"?>
<svg xmlns="http://www.w3.org/2000/svg" viewBox="0 0 64 64" width="512" height="512"><g id="outline"><path d="M56,19H50.876A26.332,26.332,0,0,0,41.6,2.2,1,1,0,0,0,41,2H37a1,1,0,0,0-.97.757A8.733,8.733,0,0,1,34,5.845,22.387,22.387,0,0,0,28.112,19h-.393a46.441,46.441,0,0,0-3.58-8.042L27.9,3.447a1,1,0,0,0-1.342-1.342C25.088,2.838,22.285,4,21,4c-1.444,0-4.5-1.368-5.553-1.895a1,1,0,0,0-1.384,1.246l2.928,7.808c-.045,2.791-1.265,5.258-2.6,7.841H8a1,1,0,0,0-1,1v4a21.1,21.1,0,0,0,4.855,13.288L13,55.053A7.26,7.26,0,0,0,20,62H44a7.256,7.256,0,0,0,7-6.936l1.147-17.775A21.1,21.1,0,0,0,57,24V20A1,1,0,0,0,56,19ZM35.523,7.138A12.8,12.8,0,0,0,37.717,4h2.929a24.832,24.832,0,0,1,8.233,15H30.122A20.556,20.556,0,0,1,35.523,7.138ZM26,21H44V34a1,1,0,0,1-2,0V30a3,3,0,0,0-6,0v7a1,1,0,0,1-2,0V32a3,3,0,0,0-6,0,1,1,0,0,1-2,0ZM16.777,4.891A13.128,13.128,0,0,0,21,6a12.23,12.23,0,0,0,3.866-.968L22.382,10H18.693ZM18.958,12H22.43A44.879,44.879,0,0,1,25.6,19H16.639A19.117,19.117,0,0,0,18.958,12ZM9.048,25h2.014l.544,8.43A18.776,18.776,0,0,1,9.048,25ZM9,23V21H24v2ZM49,54.947A5.3,5.3,0,0,1,44,60H20a5.306,5.306,0,0,1-5-5.064l-.989-15.322A26.222,26.222,0,0,0,25,45.751V47a1,1,0,0,0,1,1H38a1,1,0,0,0,1-1V45.751a26.19,26.19,0,0,0,10.99-6.137ZM27,46V44H37v2Zm23.189-9.46A23.793,23.793,0,0,1,39,43.671V43a1,1,0,0,0-1-1H26a1,1,0,0,0-1,1v.671a23.782,23.782,0,0,1-11.189-7.132L13.066,25H24v7a3,3,0,0,0,6,0,1,1,0,0,1,2,0v5a3,3,0,0,0,6,0V30a1,1,0,0,1,2,0v4a3,3,0,0,0,6,0V25h4.934Zm2.2-3.11L52.938,25h2.014A18.772,18.772,0,0,1,52.394,33.43ZM55,23H46V21h9Z"/><path d="M46.242,56.97A1,1,0,0,0,47,56V52H45v3.219l-3.242.811.484,1.94Z"/><rect x="38" y="56" width="2" height="2"/><rect x="16" y="44" width="2" height="2"/><path d="M39,8a3,3,0,1,0,3,3A3,3,0,0,0,39,8Zm0,4a1,1,0,1,1,1-1A1,1,0,0,1,39,12Z"/><rect x="16" y="35" width="2" height="2"/></g></svg>
