<?xml version="1.0"?>
<svg xmlns="http://www.w3.org/2000/svg" viewBox="0 0 64 64" width="512" height="512"><g id="outline"><rect x="13" y="10" width="2" height="2"/><path d="M61,53a11.818,11.818,0,0,0-5.218,1.076,11.195,11.195,0,0,1-8.907,0A11.809,11.809,0,0,0,41.658,53a11.8,11.8,0,0,0-5.215,1.076,9.973,9.973,0,0,1-4.45.924,9.978,9.978,0,0,1-4.451-.924A11.808,11.808,0,0,0,22.326,53a11.8,11.8,0,0,0-5.215,1.076L17,54.122V47h4v3a1,1,0,0,0,1,1h7a1,1,0,0,0,1-1V46a1,1,0,0,0-1-1H28V35a1,1,0,0,0-1-1H19V30h5a1,1,0,0,0,1-1V25a1,1,0,0,0-1-1H19V21a1,1,0,0,0-1-1H13V18a6.006,6.006,0,0,0,5.91-5H22V11H19V3a1,1,0,0,0-1-1H6A1,1,0,0,0,5,3V6H2V8H5V39H3a1,1,0,0,0-1,1v6a1,1,0,0,0,1,1H9v7.39c-.268-.1-.526-.206-.787-.314A11.793,11.793,0,0,0,3,53a1,1,0,0,0-1,1v7a1,1,0,0,0,1,1H61a1,1,0,0,0,1-1V54A1,1,0,0,0,61,53ZM28,49H23V47h5Zm-2-4H23V36h3ZM23,28H12a1,1,0,0,1,0-2H23Zm-6-4H12a3,3,0,0,0,0,6h5v4H7V22H17Zm-6-4H7V18h4Zm2-4H7V8H17v4A4,4,0,0,1,13,16ZM7,4H17V6H7ZM7,36H21v3H7ZM4,41H21v4H4Zm7,6h4v7.778A11.1,11.1,0,0,1,12.662,55,12.261,12.261,0,0,1,11,54.894ZM60,60H4V55.034a9.831,9.831,0,0,1,3.449.89A11.793,11.793,0,0,0,12.662,57a11.8,11.8,0,0,0,5.214-1.076A9.973,9.973,0,0,1,22.326,55a9.978,9.978,0,0,1,4.451.924A11.811,11.811,0,0,0,31.993,57a11.8,11.8,0,0,0,5.215-1.076A9.973,9.973,0,0,1,41.658,55a9.988,9.988,0,0,1,4.453.924A11.814,11.814,0,0,0,51.329,57a11.818,11.818,0,0,0,5.218-1.076A9.837,9.837,0,0,1,60,55.034Z"/><path d="M23.293,31.293l1.414,1.414,2.761-2.761a2.979,2.979,0,0,0,3.454-3.605,7.228,7.228,0,0,0,1.665.213,3.816,3.816,0,0,0,2.531-.827c1.018-.867,1.4-2.319,1.158-4.31a6.874,6.874,0,0,0,1.311.137,3.816,3.816,0,0,0,2.531-.827c1.017-.867,1.4-2.318,1.158-4.308a4.54,4.54,0,0,0,3.842-.692c.982-.837,1.38-2.21,1.191-4.1a4.085,4.085,0,0,0,2.969-.273A3.622,3.622,0,0,0,50,10.851V26.545C48.915,27.552,46,30.83,46,37c0,3.608,1.005,5.783,2.091,7.092A5,5,0,0,0,44,49v1a1,1,0,0,0,1,1h3a3.975,3.975,0,0,0,3-1.382A3.975,3.975,0,0,0,54,51h3a1,1,0,0,0,1-1V49a5,5,0,0,0-4.091-4.908C55,42.783,56,40.608,56,37c0-6.17-2.915-9.448-4-10.455V4.414l.707-.707L51.293,2.293,29.285,24.3A2.951,2.951,0,0,0,28,24a3,3,0,0,0-3,3,2.972,2.972,0,0,0,.692,1.894ZM33.823,24.2a2.457,2.457,0,0,1-1.9.292l2.419-2.418A2.551,2.551,0,0,1,33.823,24.2Zm5-5a2.457,2.457,0,0,1-1.9.292l2.419-2.418A2.551,2.551,0,0,1,38.823,19.2Zm5-5a2.457,2.457,0,0,1-1.9.292l2.419-2.418A2.551,2.551,0,0,1,43.823,14.2ZM48,49H46a3,3,0,0,1,3-3h1v1A2,2,0,0,1,48,49Zm8,0H54a2,2,0,0,1-2-2V46h1A3,3,0,0,1,56,49Zm-5-5.064c-.757-.346-3-1.8-3-6.936a15.534,15.534,0,0,1,.214-2.52,7.725,7.725,0,0,0,5.57,0A15.41,15.41,0,0,1,54,37C54,42.11,51.766,43.581,51,43.936Zm2.34-11.42a6.078,6.078,0,0,1-4.676,0A10.834,10.834,0,0,1,51,28.367,10.968,10.968,0,0,1,53.336,32.516Zm-5-22.923a2.17,2.17,0,0,1-1.6.08l3.068-3.068C49.558,8.161,49.061,9.2,48.34,9.593ZM28,26a1,1,0,1,1-1,1A1,1,0,0,1,28,26Z"/><path d="M44,36a1,1,0,0,0-1.447-.9C41.792,35.486,38,37.508,38,40a3,3,0,0,0,6,0Zm-2,4a1,1,0,0,1-2,0c0-.616.942-1.506,2-2.239Z"/><path d="M57.447,24.105A1,1,0,0,0,56,25v4a3,3,0,0,0,6,0C62,26.508,58.208,24.486,57.447,24.105ZM59,30a1,1,0,0,1-1-1V26.761c1.058.733,2,1.623,2,2.239A1,1,0,0,1,59,30Z"/></g></svg>
