<?xml version="1.0"?>
<svg xmlns="http://www.w3.org/2000/svg" viewBox="0 0 64 64" width="512" height="512"><g id="outline"><path d="M62,43a4.026,4.026,0,0,0-2-3.763V6a1,1,0,0,0-.293-.707l-2-2a1,1,0,0,0-1.4-.019L19.044,38.63l-8.337-8.337a3.193,3.193,0,0,0-4.414,0,3.12,3.12,0,0,0,0,4.413L14.586,43,2.293,55.293a1,1,0,0,0,0,1.414l4,4a1,1,0,0,0,1.414,0l9.352-9.352A6.629,6.629,0,0,0,25,51.314a4.959,4.959,0,0,0,6.539-.436L32,50.414l1.293,1.293a1,1,0,0,0,1.414,0l5-5a1,1,0,0,0,0-1.414l-4-4a1,1,0,0,0-1.414,0l-5,5a1,1,0,0,0,0,1.414L30.586,49l-.464.464a3,3,0,0,1-3.719.413,6.67,6.67,0,0,0,.6-6.734h.033c2.044,0,5.035-.395,6.871-2.427,1.42-1.571,1.88-3.783,1.374-6.587,1.793.078,4.8-.145,6.666-2.18,1.463-1.595,1.905-3.922,1.318-6.928,1.856-.057,5.18-.5,7.237-2.793a7.445,7.445,0,0,0,1.706-5.793,5.809,5.809,0,0,0,4.257-.64A5.561,5.561,0,0,0,58,14.374V39.237A4.026,4.026,0,0,0,56,43a4.026,4.026,0,0,0,2,3.763V49a1,1,0,0,0,1,1,1,1,0,1,1-1,1H56a3,3,0,1,0,4-2.829V46.763A4.026,4.026,0,0,0,62,43Zm-27,.414L37.586,46,34,49.586,31.414,47ZM7.707,33.293a1.121,1.121,0,0,1,1.586-1.586L14.586,37,13,38.586ZM14.414,40,16,38.414,17.586,40,16,41.586ZM7,58.586,4.414,56,18,42.414,20.586,45Zm11.491-8.663L21,47.414l2.5,2.5A4.661,4.661,0,0,1,18.491,49.923ZM24.914,48.5l-2.5-2.5,2.509-2.509A4.659,4.659,0,0,1,24.914,48.5Zm7.515-9.128c-1.34,1.486-3.718,1.772-5.388,1.768l6.274-6.613C33.692,36.662,33.4,38.293,32.429,39.372Zm8.05-8.778c-1.263,1.381-3.459,1.581-4.9,1.543L41.4,26.005C41.7,28.043,41.4,29.588,40.479,30.594Zm8.542-9.706a7.46,7.46,0,0,1-4.712,2.05l5.907-6.226A5.506,5.506,0,0,1,49.021,20.888ZM21.981,43.567l-2.548-2.548L56.981,5.4l.623.623ZM55.427,14.088a3.947,3.947,0,0,1-3.037.333l5.467-5.763C57.548,11.414,56.727,13.277,55.427,14.088ZM59,45c-.408,0-1-.779-1-2s.592-2,1-2,1,.779,1,2S59.408,45,59,45Z"/></g></svg>
