<svg width="264" height="243" viewBox="0 0 264 243" fill="none" xmlns="http://www.w3.org/2000/svg">
<path d="M166.28 111.434C165.123 112.492 164.201 113.8 163.575 115.273C161.109 120.362 157.249 124.543 152.465 127.306L153.101 130.939C153.151 131.225 153.11 131.517 152.984 131.769C152.859 132.022 152.656 132.222 152.406 132.338C152.189 132.438 150.376 133.275 147.514 134.356C141.573 136.6 131.113 139.896 121.035 139.845C120.781 139.843 120.53 139.762 120.316 139.612C120.101 139.463 119.933 139.251 119.832 139.004C119.731 138.757 119.703 138.488 119.751 138.23C119.799 137.972 119.921 137.737 120.101 137.557L122.223 135.435C117.376 135.739 112.501 135.665 107.639 135.212L100.507 143.274C100.375 143.421 100.21 143.534 100.026 143.602C99.8247 143.679 99.6063 143.701 99.3913 143.665C99.1763 143.629 98.9718 143.536 98.7973 143.396C98.6228 143.256 98.4842 143.072 98.3948 142.864C98.3053 142.655 98.2678 142.428 98.2861 142.204C98.4678 140.055 98.521 136.054 97.9178 134.457C97.2399 132.663 94.1938 129.473 93.0727 128.401C92.8822 128.218 92.7472 127.981 92.6854 127.721C92.6235 127.462 92.6377 127.192 92.7261 126.946C92.8144 126.7 92.9728 126.491 93.1806 126.345C93.3884 126.199 93.636 126.123 93.8909 126.127L104.462 126.292C105.834 125.746 107.132 125.026 108.327 124.148L105.752 122.41C105.574 122.29 105.425 122.127 105.319 121.935C105.213 121.744 105.154 121.529 105.146 121.312C105.138 121.094 105.181 120.88 105.273 120.687C105.365 120.495 105.502 120.331 105.671 120.21C108.508 117.943 110.943 115.185 112.878 112.05C112.964 111.905 113.078 111.78 113.213 111.683C113.347 111.586 113.5 111.518 113.662 111.484C113.824 111.449 113.992 111.448 114.156 111.481C114.321 111.514 114.479 111.58 114.621 111.675L117.797 113.807C118.223 113.274 118.657 112.74 119.098 112.206L115.895 110.058C115.694 109.923 115.531 109.734 115.424 109.511C115.318 109.289 115.272 109.042 115.292 108.798C115.312 108.555 115.396 108.325 115.537 108.133C115.677 107.941 115.867 107.796 116.086 107.713C117.636 106.905 119.01 105.785 120.131 104.416C122.819 101.475 125.931 98.9868 129.361 97.0331C134.162 94.2818 139.739 93.237 145.273 94.052C145.587 94.1173 145.87 94.3023 146.066 94.5703C146.262 94.8382 146.357 95.1696 146.331 95.4985L146.028 99.2104C152.639 99.6728 159.094 101.84 164.808 105.517C165.034 105.674 165.209 105.9 165.309 106.163L166.717 109.891C166.821 110.169 166.835 110.471 166.756 110.75C166.677 111.03 166.51 111.27 166.28 111.434ZM103.903 128.92L96.9851 128.812C98.3224 130.204 99.434 131.812 100.274 133.567C100.771 135.272 100.999 137.041 100.948 138.803L105.635 133.505L103.903 128.92ZM150.428 130.305L150.13 128.602C148.472 129.455 146.767 130.21 145.023 130.866C138.99 133.073 132.695 134.497 126.277 135.107L124.282 137.101C135.719 136.333 147.218 131.687 150.428 130.305ZM114.349 114.583C112.715 117.048 110.791 119.286 108.62 121.247L110.4 122.445C112.499 120.403 114.439 118.19 116.202 115.827L114.349 114.583ZM130.625 99.3675C127.399 101.212 124.474 103.558 121.946 106.328C121.037 107.312 120.059 108.226 119.021 109.063L120.791 110.249C124.323 106.137 128.765 102.982 133.757 101.039C136.862 99.8695 140.145 99.2387 143.481 99.1712L143.698 96.4901C139.124 96.1445 134.594 97.1416 130.625 99.3675V99.3675ZM163.112 107.476C160.871 106.055 147.983 98.506 134.696 103.524C126.851 106.488 122.545 111.983 118.383 117.294C114.868 121.781 111.534 126.035 106.389 128.373L107.985 132.599C111.782 132.956 128.834 134.141 144.085 128.381C147.937 127.026 151.535 125.033 154.744 122.476C153.003 122.717 151.216 122.48 149.558 121.787C148.001 121.085 146.692 119.875 145.835 118.345L139.055 124.51C138.943 124.612 138.813 124.691 138.673 124.744C138.36 124.862 138.011 124.845 137.702 124.695C137.393 124.545 137.15 124.276 137.025 123.946L133.27 114.004C133.194 113.803 133.165 113.588 133.186 113.377C133.207 113.165 133.277 112.964 133.39 112.791C133.504 112.617 133.657 112.476 133.836 112.38C134.016 112.284 134.217 112.235 134.422 112.238L145.255 112.407C145.513 112.411 145.767 112.497 145.982 112.653C146.197 112.81 146.364 113.029 146.459 113.283L147.398 115.768C147.646 116.554 148.051 117.282 148.585 117.903C149.119 118.525 149.77 119.025 150.495 119.37C153.286 120.629 156.853 119.413 158.307 118.808C159.456 117.278 160.474 115.644 161.349 113.924C162.042 112.443 162.943 111.084 164.024 109.889L163.112 107.476ZM144.716 115.797L144.428 115.034L136.303 114.907L138.704 121.263L144.716 115.797Z" fill="#8C8C8C" fill-opacity="0.6"/>
<path d="M156.114 113.896C155.415 114.16 154.649 114.2 153.913 114.01C153.177 113.819 152.504 113.408 151.979 112.828C151.455 112.248 151.101 111.525 150.965 110.75C150.828 109.975 150.913 109.184 151.211 108.475C151.508 107.767 152.004 107.174 152.635 106.771C153.266 106.369 154.005 106.174 154.757 106.212C155.51 106.251 156.242 106.52 156.862 106.986C157.482 107.453 157.961 108.096 158.24 108.833C158.613 109.822 158.599 110.911 158.201 111.86C157.802 112.81 157.051 113.542 156.114 113.896ZM154.236 108.925C154.003 109.013 153.803 109.172 153.661 109.382C153.519 109.591 153.441 109.843 153.438 110.103C153.434 110.364 153.505 110.623 153.642 110.847C153.778 111.071 153.974 111.25 154.205 111.361C154.435 111.473 154.69 111.512 154.936 111.474C155.183 111.435 155.41 111.321 155.59 111.146C155.77 110.97 155.894 110.742 155.946 110.488C155.998 110.235 155.977 109.969 155.884 109.723C155.759 109.393 155.516 109.124 155.207 108.974C154.898 108.825 154.549 108.807 154.236 108.925V108.925Z" fill="#8C8C8C" fill-opacity="0.6"/>
<path d="M136.574 108.496C131.289 110.492 126.609 114.597 119.89 123.131L117.906 121.415C124.927 112.496 129.899 108.177 135.635 106.01C141.781 103.689 149.184 105.173 149.498 105.237L149.091 107.827C149.021 107.812 142.057 106.425 136.574 108.496Z" fill="#8C8C8C" fill-opacity="0.6"/>
<path d="M130.914 114.894L131.852 117.38C131.54 117.498 131.29 117.742 131.157 118.058C131.024 118.375 131.019 118.738 131.144 119.067C131.268 119.397 131.512 119.666 131.821 119.816C132.13 119.965 132.479 119.983 132.791 119.865L133.73 122.351C133.418 122.469 133.167 122.713 133.035 123.029C132.902 123.346 132.897 123.709 133.021 124.039C133.146 124.368 133.389 124.637 133.698 124.787C134.007 124.937 134.357 124.954 134.669 124.836L135.608 127.322C134.925 127.583 134.178 127.629 133.456 127.455C132.734 127.28 132.069 126.891 131.543 126.337C131.017 125.783 130.651 125.086 130.492 124.333C130.333 123.58 130.386 122.803 130.645 122.096C129.983 121.737 129.429 121.189 129.051 120.519C128.673 119.848 128.487 119.084 128.515 118.32C128.543 117.557 128.785 116.826 129.211 116.217C129.637 115.609 130.229 115.149 130.914 114.894V114.894Z" fill="#8C8C8C" fill-opacity="0.6"/>
<path d="M125.962 119.605L126.901 122.09C126.588 122.208 126.338 122.452 126.205 122.769C126.072 123.085 126.068 123.448 126.192 123.778C126.317 124.108 126.56 124.377 126.869 124.526C127.178 124.676 127.527 124.694 127.84 124.576L128.778 127.061C127.841 127.416 126.794 127.362 125.867 126.913C124.94 126.465 124.209 125.657 123.836 124.668C123.462 123.679 123.477 122.59 123.875 121.641C124.274 120.691 125.025 119.959 125.962 119.605Z" fill="#8C8C8C" fill-opacity="0.6"/>
<path d="M118.654 125.205L121.01 124.315L121.949 126.801L119.593 127.691L118.654 125.205Z" fill="#8C8C8C" fill-opacity="0.6"/>
<path d="M113.942 126.985L116.298 126.095L117.237 128.58L114.881 129.47L113.942 126.985Z" fill="#8C8C8C" fill-opacity="0.6"/>
<path d="M75.6008 211.258C75.629 210.502 75.4511 209.75 75.0873 209.089C74.7235 208.427 74.1884 207.882 73.5428 207.516L72.5506 174.111C72.5427 173.844 72.4325 173.591 72.2445 173.406L70.2391 171.436C70.0541 171.253 69.8078 171.152 69.553 171.153C69.2983 171.155 69.0554 171.26 68.8765 171.445L33.6802 207.731L25.3206 199.519C24.7256 198.96 23.947 198.657 23.1471 198.674C22.3472 198.69 21.5876 199.025 21.0264 199.608C20.7531 199.905 20.5398 200.255 20.3985 200.639C20.2572 201.023 20.1907 201.432 20.203 201.844C20.2152 202.256 20.3059 202.662 20.4698 203.039C20.6336 203.417 20.8676 203.758 21.1582 204.043L29.4737 212.212L17.8813 224.815C17.7045 225.007 17.6096 225.265 17.6175 225.532C17.6254 225.798 17.7355 226.052 17.9235 226.236L21.9343 230.176C22.1223 230.361 22.3729 230.461 22.6309 230.456C22.8888 230.451 23.1331 230.34 23.3099 230.148L32.1289 220.56C33.2738 221.393 34.6448 221.823 36.0371 221.787C37.4294 221.75 38.7682 221.25 39.8532 220.359C40.8057 221.079 41.9757 221.418 43.1443 221.313C44.3129 221.208 45.3999 220.666 46.2017 219.789L46.6363 219.314L47.9328 220.587C48.1209 220.772 48.3714 220.872 48.6294 220.867C48.8874 220.862 49.1316 220.751 49.3085 220.559L54.0235 215.433C54.2003 215.24 54.2952 214.983 54.2872 214.716C54.2793 214.45 54.1693 214.196 53.9813 214.011L49.9705 210.072C49.7824 209.887 49.5319 209.786 49.2739 209.792C49.0159 209.797 48.7717 209.908 48.5948 210.1L43.8798 215.226C43.703 215.418 43.6081 215.676 43.6161 215.943C43.624 216.209 43.734 216.463 43.922 216.647L45.2185 217.921L44.781 218.397C44.327 218.889 43.7229 219.205 43.0678 219.294C42.4127 219.383 41.7454 219.239 41.1752 218.886C41.8186 217.9 42.1932 216.752 42.2605 215.56C42.3278 214.368 42.0852 213.176 41.5579 212.106L41.59 212.106C43.5786 212.064 46.4766 211.607 48.2021 209.528C49.5367 207.92 49.9181 205.688 49.3422 202.88C51.0888 202.922 54.0076 202.638 55.7622 200.555C57.1379 198.922 57.4984 196.575 56.8376 193.565C58.6415 193.47 61.8621 192.958 63.7948 190.612C64.4261 189.802 64.8846 188.862 65.1407 187.853C65.3968 186.845 65.4448 185.789 65.2816 184.756C66.701 185.068 68.1766 184.807 69.404 184.027C69.9736 183.64 70.4659 183.145 70.8549 182.568L71.597 207.557C70.974 207.949 70.4718 208.515 70.1477 209.191C69.8236 209.867 69.6905 210.625 69.7636 211.379C69.7354 212.135 69.9133 212.887 70.2771 213.548C70.641 214.21 71.1761 214.755 71.8217 215.121L71.8885 217.369C71.8964 217.636 72.0065 217.889 72.1945 218.074C72.3826 218.259 72.6332 218.359 72.8912 218.354C73.0836 218.35 73.2734 218.405 73.4367 218.512C73.6 218.619 73.7293 218.774 73.8084 218.956C73.8875 219.138 73.9128 219.34 73.881 219.535C73.8493 219.731 73.7619 219.912 73.63 220.056C73.4982 220.199 73.3277 220.298 73.1401 220.341C72.9525 220.384 72.7563 220.368 72.5763 220.295C72.3963 220.223 72.2405 220.097 72.1287 219.934C72.0169 219.771 71.9541 219.578 71.9482 219.379L70.0024 219.419C70.019 219.972 70.1822 220.511 70.4744 220.978C70.7666 221.444 71.1765 221.82 71.6592 222.064C72.142 222.308 72.679 222.412 73.2117 222.362C73.7443 222.313 74.252 222.114 74.6794 221.785C75.1067 221.457 75.4373 221.013 75.6348 220.501C75.8324 219.99 75.8894 219.43 75.7996 218.884C75.7098 218.338 75.4767 217.827 75.1257 217.405C74.7747 216.984 74.3194 216.669 73.8094 216.496L73.7674 215.081C74.3905 214.688 74.8926 214.122 75.2167 213.446C75.5408 212.771 75.6739 212.012 75.6008 211.258V211.258ZM49.346 212.218L51.939 214.765L48.5573 218.441L45.9643 215.894L49.346 212.218ZM22.4916 202.595C22.3872 202.492 22.3031 202.37 22.2443 202.234C22.1854 202.098 22.1528 201.952 22.1484 201.804C22.144 201.656 22.1679 201.509 22.2186 201.371C22.2694 201.233 22.3461 201.107 22.4443 201.001C22.6426 200.785 22.9166 200.661 23.2059 200.655C23.3492 200.652 23.492 200.678 23.626 200.732C23.7601 200.786 23.8828 200.866 23.9872 200.969L29.2946 206.182L27.799 207.808L22.4916 202.595ZM29.2168 209.201L30.7124 207.575L32.3027 209.137L30.8071 210.763L29.2168 209.201ZM22.5588 228.03L19.9658 225.483L32.7775 211.555L35.3705 214.102L22.5588 228.03ZM33.4793 219.092L35.8453 216.52L38.3521 218.982C37.6392 219.478 36.802 219.751 35.9388 219.771C35.0756 219.79 34.2224 219.555 33.4793 219.092V219.092ZM39.6855 217.532L37.1788 215.07L39.5448 212.498C40.0299 213.241 40.3008 214.11 40.3258 215.002C40.3507 215.894 40.1286 216.772 39.6855 217.532V217.532ZM46.7241 208.207C45.4648 209.727 43.1599 210.063 41.5351 210.092L47.4414 203.32C47.8719 205.458 47.6365 207.103 46.7241 208.207ZM54.2936 199.222C53.1061 200.636 50.9757 200.881 49.5726 200.872L55.0526 194.592C55.4053 196.634 55.1596 198.193 54.2936 199.222ZM62.314 189.295C61.1068 190.547 59.504 191.311 57.7911 191.451L63.3519 185.074C63.4659 185.817 63.4326 186.574 63.2542 187.3C63.0758 188.025 62.7559 188.704 62.314 189.295V189.295ZM36.6849 212.633L34.13 210.124L69.5957 173.569L70.2203 174.182L36.6849 212.633ZM68.3432 182.332C67.9045 182.597 67.4182 182.769 66.9126 182.836C66.407 182.904 65.8923 182.867 65.3985 182.728L70.5451 176.825C70.3268 179.602 69.5837 181.491 68.3432 182.332ZM72.7419 213.329C72.345 213.337 71.7458 212.566 71.7094 211.339C71.6729 210.111 72.2256 209.317 72.6225 209.308C73.0195 209.3 73.6186 210.071 73.6551 211.298C73.6915 212.526 73.1389 213.32 72.7419 213.329Z" fill="#8C8C8C" fill-opacity="0.6"/>
<g clip-path="url(#clip0)">
<path d="M223.147 29.5177C225.883 30.2674 227.952 27.5263 228.787 24.4782C229.56 21.6536 228.684 20.0604 225.943 19.3096C223.203 18.5588 221.637 19.4829 220.863 22.3075C220.028 25.3557 220.41 28.768 223.147 29.5177ZM225.384 21.3512C227.031 21.8024 227.271 22.2369 226.806 23.9355C226.356 25.577 225.16 27.8744 223.706 27.4761C222.252 27.0778 222.394 24.4916 222.844 22.8502C223.309 21.1515 223.737 20.9 225.384 21.3512Z" fill="#8C8C8C" fill-opacity="0.6"/>
<path d="M198.397 73.2191C208.151 75.8912 215.083 70.613 216.89 64.0185L221.695 46.4768C222.202 46.4387 222.693 46.2722 223.124 45.9922C223.556 45.7122 223.914 45.3275 224.168 44.8728C224.421 44.4181 224.561 43.9075 224.576 43.3871C224.59 42.8667 224.478 42.3528 224.25 41.8916C224.682 41.611 225.04 41.2258 225.293 40.7708C225.545 40.3157 225.685 39.8049 225.699 39.2845C225.712 38.7642 225.6 38.2504 225.371 37.7895C225.143 37.3287 224.805 36.9351 224.389 36.6444L224.92 34.7048C225.588 34.0735 226.312 33.4564 227.014 32.8641C229.409 30.8217 231.885 28.7157 232.748 25.5634C234.139 20.489 232.047 16.6336 227.155 15.2517L227.09 15.2338C225.496 14.7731 223.795 14.8265 222.216 15.3869C220.638 15.9474 219.257 16.9879 218.259 18.3687C215.388 22.4832 216.771 26.521 218.115 30.4208C218.416 31.2934 218.724 32.1932 218.979 33.0717L218.448 35.0112C217.941 35.0488 217.449 35.2151 217.016 35.4953C216.584 35.7755 216.225 36.1608 215.971 36.6163C215.717 37.0717 215.577 37.5832 215.563 38.1043C215.549 38.6255 215.662 39.1401 215.891 39.6016C215.46 39.8822 215.102 40.2674 214.849 40.7224C214.596 41.1775 214.457 41.6882 214.443 42.2086C214.429 42.729 214.542 43.2428 214.77 43.7037C214.999 44.1645 215.336 44.5581 215.753 44.8488L210.947 62.3905C209.595 67.3261 204.512 68.3095 200.075 67.0942C195.706 65.8973 193.281 60.8015 194.669 55.7362L195.787 51.6529L198.759 52.4669C198.954 52.5205 199.162 52.5131 199.356 52.4455C199.549 52.378 199.72 52.2533 199.846 52.0874C199.972 51.9214 200.048 51.7216 200.064 51.5131C200.08 51.3046 200.036 51.0969 199.936 50.9162L194.25 40.579C194.15 40.3984 194.001 40.2528 193.819 40.1608C193.638 40.0689 193.433 40.0345 193.231 40.0622C193.029 40.0899 192.839 40.1783 192.684 40.3163C192.529 40.4543 192.417 40.6357 192.361 40.8376L188.726 54.1082C186.413 62.5513 190.751 71.1244 198.397 73.2191ZM219.926 19.5803C220.688 18.554 221.732 17.7851 222.921 17.3758C224.109 16.9666 225.386 16.9363 226.58 17.289C230.357 18.3557 231.841 21.1008 230.768 25.0208C230.081 27.5279 227.961 29.3308 225.716 31.2409C224.913 31.9242 224.083 32.6307 223.309 33.381L223.097 33.5854L222.459 35.9139L220.479 35.3712L221.116 33.0427L221.039 32.7591C220.755 31.719 220.401 30.688 220.058 29.691C218.789 25.9897 217.687 22.7906 219.926 19.5803ZM218.929 37.1415L222.891 38.2268C223.153 38.2988 223.376 38.4753 223.509 38.7177C223.642 38.96 223.676 39.2482 223.601 39.519C223.527 39.7897 223.352 40.0208 223.114 40.1613C222.875 40.3019 222.594 40.3404 222.331 40.2685L218.369 39.1831C218.107 39.1111 217.884 38.9346 217.751 38.6923C217.618 38.4499 217.584 38.1617 217.659 37.891C217.733 37.6202 217.908 37.3892 218.146 37.2486C218.385 37.1081 218.666 37.0695 218.929 37.1415ZM217.81 41.2247L221.772 42.3101C222.035 42.382 222.257 42.5586 222.39 42.8009C222.524 43.0433 222.557 43.3315 222.483 43.6022C222.409 43.873 222.233 44.104 221.995 44.2446C221.757 44.3851 221.475 44.4237 221.213 44.3517L217.251 43.2664C216.988 43.1944 216.766 43.0178 216.632 42.7755C216.499 42.5332 216.466 42.245 216.54 41.9742C216.614 41.7035 216.79 41.4724 217.028 41.3319C217.266 41.1913 217.547 41.1528 217.81 41.2247ZM193.667 43.8445L196.927 49.7703L195.356 49.34C195.093 49.268 194.812 49.3065 194.574 49.4471C194.336 49.5876 194.16 49.8187 194.086 50.0894L192.688 55.1935C190.992 61.3848 194.055 67.6397 199.516 69.1358C205.931 70.8933 211.446 68.3435 212.928 62.9332L217.682 45.5793L219.663 46.122L214.909 63.4759C212.889 70.8482 205.355 72.9303 198.957 71.1775C192.403 69.382 188.702 61.968 190.707 54.6508L193.667 43.8445Z" fill="#8C8C8C" fill-opacity="0.6"/>
</g>
<g clip-path="url(#clip1)">
<path d="M58.2804 49.8017C55.9568 39.4113 48.7179 28.5887 41.7199 27.0745L37.5877 12.25C37.4008 11.5824 37.0119 11.0039 36.4998 10.6316C35.9878 10.2593 35.391 10.1212 34.8304 10.2452C34.2697 10.3692 33.7872 10.746 33.4806 11.2993C33.174 11.8527 33.0663 12.541 33.1793 13.225L35.7543 28.3978C30.0703 32.7589 28.1309 45.634 30.4545 56.0244C32.9646 67.2488 39.1969 71.2435 45.1181 71.3449L48.6747 87.2485C48.7514 87.5914 48.9377 87.8951 49.1926 88.0927C49.4475 88.2903 49.7502 88.3656 50.0341 88.3022L54.315 87.3448C54.5988 87.2814 54.8406 87.0843 54.987 86.7969C55.1335 86.5095 55.1727 86.1554 55.096 85.8125L51.5395 69.9089C56.8535 67.295 60.7905 61.026 58.2804 49.8017ZM32.595 55.5457L56.1399 50.2804C56.3303 51.1451 56.4819 52.0176 56.5941 52.8941L33.2974 58.1039C33.0256 57.2631 32.7911 56.4091 32.595 55.5457V55.5457ZM35.3528 12.9141L35.3678 12.9107C35.4075 12.9045 35.4468 12.8957 35.4855 12.8844L39.4011 26.9265C38.8519 26.9755 38.3136 27.0959 37.7958 27.2855L35.3528 12.9141ZM39.1628 29.6394C45.156 28.2991 52.4854 37.9584 55.4546 47.7183L32.1237 52.9358C30.6528 42.8408 33.1695 30.9797 39.1628 29.6394ZM52.6664 84.9982L50.526 85.4769L47.3346 71.2063C47.6982 71.1535 48.0602 71.0942 48.4156 71.0148C48.7709 70.9353 49.1237 70.8347 49.4751 70.7276L52.6664 84.9982ZM47.8373 68.4288C41.889 69.759 37.0387 66.874 34.2375 60.609L56.8106 55.5609C56.9502 62.4211 53.7856 67.0986 47.8373 68.4288Z" fill="#8C8C8C" fill-opacity="0.6"/>
<path d="M49.0539 43.7192L51.1944 43.2406L51.7727 45.8265L49.6322 46.3052L49.0539 43.7192Z" fill="#8C8C8C" fill-opacity="0.6"/>
<path d="M48.6229 41.5306L50.4733 40.2574C50.3012 39.9348 46.2028 32.3416 41.0832 31.966L41.1241 34.5907C45.0223 34.877 48.587 41.4654 48.6229 41.5306V41.5306Z" fill="#8C8C8C" fill-opacity="0.6"/>
<path d="M42.8917 61.3889L45.0321 60.9102L45.6104 63.4962L43.47 63.9749L42.8917 61.3889Z" fill="#8C8C8C" fill-opacity="0.6"/>
<path d="M38.6108 62.3463L40.7513 61.8676L41.3296 64.4536L39.1891 64.9323L38.6108 62.3463Z" fill="#8C8C8C" fill-opacity="0.6"/>
</g>
<g clip-path="url(#clip2)">
<path d="M198.557 193.811C197.972 193.576 197.336 193.506 196.728 193.612C196.121 193.717 195.57 193.993 195.145 194.403C194.719 194.814 194.439 195.341 194.34 195.919C194.24 196.496 194.325 197.097 194.585 197.647C194.844 198.197 195.266 198.669 195.797 199.006C196.328 199.342 196.945 199.527 197.569 199.537C198.192 199.547 198.796 199.382 199.302 199.062C199.808 198.742 200.194 198.282 200.412 197.74C200.705 197.013 200.673 196.191 200.325 195.454C199.977 194.717 199.341 194.126 198.557 193.811ZM197.088 197.464C196.893 197.386 196.724 197.255 196.602 197.09C196.48 196.924 196.411 196.731 196.404 196.534C196.396 196.337 196.451 196.146 196.56 195.984C196.669 195.822 196.828 195.697 197.018 195.625C197.207 195.552 197.418 195.536 197.623 195.578C197.828 195.619 198.019 195.717 198.172 195.859C198.324 196 198.431 196.179 198.479 196.373C198.527 196.567 198.513 196.767 198.441 196.947C198.343 197.189 198.146 197.38 197.892 197.477C197.639 197.574 197.349 197.569 197.088 197.464Z" fill="#8C8C8C" fill-opacity="0.6"/>
<path d="M237.466 196.728L239.438 197.521L238.703 199.347L236.732 198.554L237.466 196.728Z" fill="#8C8C8C" fill-opacity="0.6"/>
<path d="M227.181 222.3L229.153 223.092L228.418 224.919L226.447 224.126L227.181 222.3Z" fill="#8C8C8C" fill-opacity="0.6"/>
<path d="M243.014 200.02C243.499 198.809 243.446 197.439 242.866 196.211C242.287 194.984 241.227 193.998 239.921 193.471L204.434 179.198C204.203 179.106 203.95 179.091 203.718 179.157L180.465 185.719C180.319 185.76 180.187 185.832 180.076 185.928C179.966 186.025 179.881 186.144 179.828 186.278L177.624 191.758C177.57 191.891 177.549 192.037 177.561 192.182C177.574 192.328 177.62 192.471 177.696 192.602L189.93 213.437C190.052 213.645 190.246 213.81 190.476 213.903L225.963 228.176C227.185 228.668 228.533 228.723 229.745 228.329C230.958 227.935 231.948 227.12 232.524 226.043C233.1 224.965 233.221 223.702 232.862 222.499C232.504 221.296 231.693 220.238 230.586 219.531L237.271 202.909C238.468 203.145 239.694 202.986 240.74 202.46C241.786 201.933 242.589 201.072 243.014 200.02V200.02ZM216.514 186.179L234.258 193.315L233.523 195.142L215.78 188.006L216.514 186.179ZM197.167 183.113L199.831 188.754L193.372 190.578L190.708 184.938L197.167 183.113ZM202.319 195.013L204.628 194.131L210.135 196.345L206.462 205.478L200.955 203.264L199.9 201.028L197.986 201.759L199.223 204.378C199.339 204.624 199.551 204.821 199.813 204.926L205.727 207.305L204.993 209.131L197.463 206.103L190.123 193.602L204.075 189.664L211.604 192.692L210.87 194.519L204.955 192.14C204.694 192.035 204.404 192.03 204.15 192.127L201.444 193.161L202.319 195.013ZM179.767 192.123L181.627 187.498L188.711 185.501L191.375 191.143L188.234 192.027C188.089 192.068 187.957 192.14 187.847 192.236C187.737 192.333 187.652 192.452 187.598 192.586C187.544 192.72 187.523 192.865 187.535 193.011C187.548 193.157 187.594 193.3 187.67 193.43L189.323 196.245L183.495 198.469L179.767 192.123ZM184.543 200.256L190.371 198.031L193.769 203.82L187.94 206.046L184.543 200.256ZM221.769 224.367L204.026 217.23L204.76 215.404L222.504 222.54L221.769 224.367ZM230.757 224.799C230.465 225.525 229.873 226.097 229.112 226.388C228.351 226.678 227.482 226.665 226.698 226.349L223.741 225.16L225.21 221.507L203.523 212.784L202.054 216.437L191.568 212.22L188.991 207.833L191.051 207.047L193.399 210.622C193.522 210.809 193.704 210.957 193.917 211.043L196.874 212.232L197.609 210.406L194.98 209.348L192.983 206.309L194.82 205.607L195.826 207.32C195.948 207.529 196.141 207.693 196.372 207.786L228.902 220.869C229.686 221.185 230.322 221.776 230.67 222.513C231.018 223.25 231.049 224.072 230.757 224.799V224.799ZM206.964 209.924L213.576 193.485L217.519 195.071L210.907 211.51L206.964 209.924ZM221.964 201.103L218.291 210.236L214.348 208.65L218.021 199.517L221.964 201.103ZM218.756 197.691L219.49 195.864L223.433 197.45L222.699 199.276L218.756 197.691ZM217.556 212.062L216.822 213.889L212.879 212.303L213.613 210.476L217.556 212.062ZM218.793 214.682L225.405 198.243L229.348 199.829L222.736 216.268L218.793 214.682ZM226.177 213.407L229.85 204.275L231.822 205.068L232.556 203.241L230.585 202.448L231.319 200.622L235.262 202.207L228.651 218.646L224.708 217.061L225.442 215.234L227.414 216.027L228.148 214.2L226.177 213.407ZM236.983 200.777L204.453 187.694C204.222 187.601 203.969 187.587 203.737 187.652L201.824 188.192L200.985 186.414L204.53 185.603L207.159 186.66L207.894 184.834L204.936 183.644C204.723 183.559 204.49 183.539 204.271 183.589L200.101 184.543L199.16 182.55L204.056 181.168L214.543 185.386L213.073 189.039L234.76 197.761L236.229 194.108L239.187 195.298C239.971 195.613 240.607 196.204 240.955 196.941C241.303 197.678 241.334 198.5 241.042 199.227C240.75 199.954 240.158 200.525 239.397 200.816C238.635 201.107 237.767 201.093 236.983 200.777Z" fill="#8C8C8C" fill-opacity="0.6"/>
<path d="M188.518 189.462L187.644 187.61L183.584 189.161C183.331 189.258 183.133 189.448 183.036 189.69L182.301 191.517C182.204 191.759 182.214 192.033 182.33 192.279L184.186 196.208L186.099 195.477L184.425 191.932L184.855 190.861L188.518 189.462Z" fill="#8C8C8C" fill-opacity="0.6"/>
<path d="M209.865 185.627L211.837 186.42L211.102 188.246L209.13 187.453L209.865 185.627Z" fill="#8C8C8C" fill-opacity="0.6"/>
<path d="M199.58 211.198L201.552 211.991L200.817 213.818L198.846 213.025L199.58 211.198Z" fill="#8C8C8C" fill-opacity="0.6"/>
</g>
<defs>
<clipPath id="clip0">
<rect width="72.5182" height="69.8077" fill="white" transform="translate(193.444 3) rotate(15.3203)"/>
</clipPath>
<clipPath id="clip1">
<rect width="70.1862" height="84.7947" fill="white" transform="translate(0 15.3175) rotate(-12.6057)"/>
</clipPath>
<clipPath id="clip2">
<rect width="68" height="63" fill="white" transform="translate(188.508 159) rotate(21.9097)"/>
</clipPath>
</defs>
</svg>
