<svg width="250" height="250" viewBox="0 0 250 250" fill="none" xmlns="http://www.w3.org/2000/svg">
<rect width="250" height="250" fill="#E8E8E8"/>
<path fill-rule="evenodd" clip-rule="evenodd" d="M138.812 25.5625C139.061 25.5625 139.3 25.472 139.475 25.3108C139.651 25.1496 139.75 24.931 139.75 24.7031V8.375H140.688C140.936 8.375 141.175 8.28446 141.35 8.1233C141.526 7.96213 141.625 7.74355 141.625 7.51562V0H250V104H219.264C218.982 104 218.711 104.122 218.512 104.34C218.313 104.557 218.201 104.852 218.201 105.159V153.853C218.201 154.161 218.313 154.456 218.512 154.673C218.711 154.89 218.982 155.012 219.264 155.012H243.72V172.403C243.72 172.711 243.832 173.005 244.032 173.223C244.231 173.44 244.502 173.562 244.784 173.562H250V250H141.875V247.062H142.812C143.061 247.062 143.3 246.972 143.475 246.811C143.651 246.65 143.75 246.431 143.75 246.203V242.766C143.75 242.538 143.651 242.319 143.475 242.158C143.3 241.997 143.061 241.906 142.812 241.906H135.312C135.064 241.906 134.825 241.997 134.65 242.158C134.474 242.319 134.375 242.538 134.375 242.766V246.203C134.375 246.431 134.474 246.65 134.65 246.811C134.825 246.972 135.064 247.062 135.312 247.062H136.25V249.31C134.785 248.309 133.438 245.104 133.438 241.047C133.438 236.128 135.417 232.453 137.188 232.453C137.436 232.453 137.675 232.363 137.85 232.201C138.026 232.04 138.125 231.822 138.125 231.594V225.578C138.125 225.35 138.026 225.132 137.85 224.97C137.675 224.809 137.436 224.719 137.188 224.719H112.812C112.564 224.719 112.325 224.809 112.15 224.97C111.974 225.132 111.875 225.35 111.875 225.578V231.594C111.875 231.822 111.974 232.04 112.15 232.201C112.325 232.363 112.564 232.453 112.812 232.453C114.583 232.453 116.562 236.128 116.562 241.047C116.562 245.104 115.215 248.309 113.75 249.31V247.062H114.688C114.936 247.062 115.175 246.972 115.35 246.811C115.526 246.65 115.625 246.431 115.625 246.203V242.766C115.625 242.538 115.526 242.319 115.35 242.158C115.175 241.997 114.936 241.906 114.688 241.906H107.188C106.939 241.906 106.7 241.997 106.525 242.158C106.349 242.319 106.25 242.538 106.25 242.766V246.203C106.25 246.431 106.349 246.65 106.525 246.811C106.7 246.972 106.939 247.062 107.188 247.062H108.125V250H0V173.562H1.2163C1.49831 173.562 1.76877 173.44 1.96819 173.223C2.1676 173.005 2.27962 172.711 2.27962 172.403V155.012H26.7361C27.0181 155.012 27.2885 154.89 27.4879 154.673C27.6873 154.456 27.7994 154.161 27.7994 153.853V105.159C27.7994 104.852 27.6873 104.557 27.4879 104.34C27.2885 104.122 27.0181 104 26.7361 104H0V0H107.875V7.51562C107.875 7.74355 107.974 7.96213 108.15 8.1233C108.325 8.28446 108.564 8.375 108.812 8.375H109.75V24.7031C109.75 24.931 109.849 25.1496 110.025 25.3108C110.2 25.472 110.439 25.5625 110.688 25.5625H114.438C114.686 25.5625 114.925 25.472 115.1 25.3108C115.276 25.1496 115.375 24.931 115.375 24.7031V23.4948L124.75 18.807L134.125 23.4948V24.7031C134.125 24.931 134.224 25.1496 134.4 25.3108C134.575 25.472 134.814 25.5625 135.062 25.5625H138.812ZM140 247.062V250H138.125V247.062H140ZM131.562 241.047C131.562 244.972 132.64 248.253 134.311 250H115.689C117.36 248.253 118.438 244.972 118.438 241.047C118.438 235.757 116.479 231.637 113.75 230.864V229.875H136.25V230.864C133.521 231.638 131.562 235.757 131.562 241.047ZM111.875 247.062V250H110V247.062H111.875ZM139.75 3.21875V0H137.875V3.21875H139.75ZM134.909 0H114.591C114.244 0.23115 113.88 0.403389 113.5 0.510859V3.21875H136V0.510859C135.62 0.403389 135.256 0.23115 134.909 0ZM111.625 0H109.75V3.21875H111.625V0ZM134.125 18.0988L130.146 16.1094L134.125 14.1191V18.0988ZM134.125 8.7239L124.75 13.4118L115.375 8.7239V8.375H134.125V8.7239ZM115.375 12.1614V10.6824L122.793 14.3906L121.311 15.1314L115.375 12.1614ZM119.354 16.1094L115.375 18.0997V14.1199L119.354 16.1094ZM137.875 23.8438H136V8.375H137.875V23.8438ZM113.5 23.8438H111.625V8.375H113.5V23.8438ZM109.75 6.65625V4.9375H139.75V6.65625H109.75ZM115.375 21.5363V20.0573L134.125 10.6824V12.1614L115.375 21.5363ZM126.708 17.8281L128.189 17.0873L134.125 20.0573V21.5363L126.708 17.8281ZM0 108.637V106.319H25.6727V152.694H0V150.375H22.4828C22.7648 150.375 23.0352 150.253 23.2346 150.035C23.4341 149.818 23.5461 149.523 23.5461 149.216V109.797C23.5461 109.489 23.4341 109.194 23.2346 108.977C23.0352 108.76 22.7648 108.637 22.4828 108.637H0ZM0 148.056H21.4194V145.125C20.0364 145.553 18.6036 145.759 17.1661 145.737C11.6041 145.737 3.6566 143.224 0 138.95V148.056ZM0 134.144H2.43805L0 132.017V134.144ZM0 113.754V110.956H21.4194V123.162C20.0364 122.734 18.6036 122.528 17.1661 122.55C11.5892 122.55 3.74405 125.041 0 129.123V123.678C0.831652 123.603 1.65561 123.395 2.44444 123.053C3.97452 122.38 5.68442 122.38 7.2145 123.053L7.97053 120.884C5.95079 120.009 3.70071 120.009 1.68097 120.884C1.13786 121.122 0.572191 121.276 0 121.345V116.235C0.107462 116.192 0.214131 116.146 0.319925 116.097C1.84795 115.427 3.55452 115.427 5.08255 116.097C7.10412 116.972 9.35585 116.972 11.3774 116.097C12.9079 115.426 14.617 115.426 16.1475 116.097C17.142 116.554 18.2137 116.778 19.2928 116.753V114.434C18.4737 114.458 17.6596 114.287 16.9078 113.931C14.8858 113.056 12.6338 113.056 10.6118 113.931C9.08207 114.602 7.37365 114.602 5.84389 113.931C3.97154 113.12 1.90124 113.061 0 113.754ZM0 171.244V155.012H0.152979V171.244H0ZM220.327 106.319H250V108.637H223.517C223.235 108.637 222.965 108.76 222.765 108.977C222.566 109.194 222.454 109.489 222.454 109.797V149.216C222.454 149.523 222.566 149.818 222.765 150.035C222.965 150.253 223.235 150.375 223.517 150.375H250V152.694H220.327V106.319ZM243.72 110.956H250V114.271C249.658 114.189 249.321 114.076 248.992 113.931C247.998 113.474 246.926 113.25 245.847 113.275V115.594C246.665 115.57 247.478 115.742 248.229 116.097C248.798 116.359 249.393 116.544 250 116.65V120.478C249.339 120.298 248.658 120.215 247.974 120.231V122.55C248.664 122.53 249.351 122.649 250 122.9V132.493C249.977 132.44 249.951 132.389 249.921 132.34C249.804 132.15 249.638 132.001 249.444 131.913C249.25 131.826 249.036 131.803 248.83 131.847C248.623 131.892 248.434 132.003 248.285 132.165L245.095 135.643L246.599 137.282L247.974 135.783V137.622C247.974 138.237 247.75 138.827 247.351 139.261C246.952 139.696 246.411 139.941 245.847 139.941C245.283 139.941 244.742 139.696 244.343 139.261C243.944 138.827 243.72 138.237 243.72 137.622V125.815C244.342 125.579 244.881 125.137 245.262 124.552C245.643 123.967 245.848 123.268 245.848 122.55C245.848 121.832 245.643 121.132 245.262 120.547C244.881 119.962 244.342 119.521 243.72 119.285V110.956ZM248.855 140.901C249.432 140.271 249.826 139.479 250 138.623V148.056H224.581V110.956H241.594V119.285C240.972 119.521 240.433 119.962 240.052 120.547C239.671 121.132 239.466 121.832 239.466 122.55C239.466 123.268 239.671 123.967 240.052 124.552C240.433 125.137 240.972 125.579 241.594 125.815V137.622C241.594 138.852 242.042 140.031 242.839 140.901C243.637 141.771 244.719 142.259 245.847 142.259C246.975 142.259 248.057 141.771 248.855 140.901ZM245.847 155.012H250V166.606H247.974V168.925H250V171.244H245.847V155.012ZM161.659 117.434C160.505 118.492 159.586 119.8 158.962 121.273C156.504 126.362 152.656 130.543 147.887 133.306L148.521 136.939C148.571 137.225 148.53 137.517 148.404 137.769C148.279 138.022 148.077 138.222 147.828 138.338C147.612 138.438 145.804 139.275 142.951 140.356C137.029 142.6 126.602 145.896 116.555 145.845C116.302 145.843 116.052 145.762 115.838 145.612C115.624 145.463 115.456 145.251 115.356 145.004C115.256 144.757 115.227 144.488 115.275 144.23C115.323 143.972 115.445 143.737 115.624 143.557L117.74 141.435C112.908 141.739 108.048 141.665 103.202 141.212L96.092 149.274C95.9596 149.421 95.7953 149.534 95.6117 149.602C95.4115 149.679 95.1938 149.701 94.9794 149.665C94.7651 149.629 94.5612 149.536 94.3873 149.396C94.2134 149.256 94.0752 149.072 93.986 148.864C93.8968 148.655 93.8595 148.428 93.8777 148.204C94.0588 146.055 94.1118 142.054 93.5105 140.457C92.8348 138.663 89.7982 135.473 88.6806 134.401C88.4907 134.218 88.3561 133.981 88.2945 133.721C88.2329 133.462 88.247 133.192 88.3351 132.946C88.4231 132.7 88.5811 132.491 88.7882 132.345C88.9954 132.199 89.2421 132.123 89.4963 132.127L100.034 132.292C101.402 131.746 102.696 131.026 103.887 130.148L101.32 128.41C101.142 128.29 100.994 128.127 100.888 127.935C100.783 127.744 100.724 127.529 100.716 127.312C100.708 127.094 100.751 126.88 100.843 126.687C100.934 126.495 101.071 126.331 101.24 126.21C104.067 123.943 106.495 121.185 108.423 118.05C108.51 117.905 108.623 117.78 108.758 117.683C108.892 117.586 109.044 117.518 109.205 117.484C109.367 117.449 109.534 117.448 109.698 117.481C109.862 117.514 110.019 117.58 110.161 117.675L113.327 119.807C113.752 119.274 114.185 118.74 114.625 118.206L111.431 116.058C111.231 115.923 111.068 115.734 110.962 115.511C110.856 115.289 110.81 115.042 110.83 114.798C110.85 114.555 110.934 114.325 111.074 114.133C111.214 113.941 111.404 113.796 111.622 113.713C113.167 112.905 114.536 111.785 115.654 110.416C118.334 107.475 121.435 104.987 124.855 103.033C129.641 100.282 135.201 99.237 140.718 100.052C141.031 100.117 141.313 100.302 141.508 100.57C141.703 100.838 141.798 101.17 141.772 101.499L141.47 105.21C148.06 105.673 154.495 107.84 160.191 111.517C160.416 111.674 160.591 111.9 160.69 112.163L162.094 115.891C162.198 116.169 162.212 116.471 162.133 116.75C162.054 117.03 161.887 117.27 161.659 117.434ZM99.4774 134.92L92.5808 134.812C93.9138 136.204 95.022 137.812 95.8593 139.567C96.3549 141.272 96.582 143.041 96.5316 144.803L101.204 139.505L99.4774 134.92ZM145.856 136.305L145.56 134.602C143.907 135.455 142.207 136.21 140.469 136.866C134.454 139.073 128.178 140.497 121.78 141.107L119.792 143.101C131.193 142.333 142.656 137.687 145.856 136.305ZM109.89 120.583C108.261 123.048 106.344 125.286 104.179 127.247L105.954 128.445C108.046 126.403 109.98 124.19 111.738 121.827L109.89 120.583ZM126.115 105.368C122.9 107.212 119.984 109.558 117.464 112.328C116.557 113.312 115.583 114.226 114.548 115.063L116.312 116.249C119.833 112.137 124.261 108.982 129.238 107.039C132.332 105.869 135.606 105.239 138.931 105.171L139.148 102.49C134.588 102.145 130.072 103.142 126.115 105.368ZM158.5 113.476C156.267 112.055 143.419 104.506 130.174 109.524C122.353 112.488 118.06 117.983 113.911 123.294C110.407 127.781 107.084 132.035 101.955 134.373L103.546 138.599C107.331 138.956 124.33 140.141 139.533 134.381C143.373 133.026 146.96 131.033 150.158 128.476C148.423 128.717 146.642 128.48 144.989 127.787C143.437 127.085 142.132 125.875 141.278 124.345L134.519 130.51C134.407 130.612 134.278 130.691 134.138 130.744C133.826 130.862 133.478 130.845 133.17 130.695C132.862 130.545 132.619 130.276 132.495 129.946L128.752 120.004C128.676 119.803 128.647 119.588 128.668 119.377C128.689 119.165 128.759 118.964 128.872 118.791C128.985 118.617 129.137 118.476 129.316 118.38C129.495 118.284 129.696 118.235 129.9 118.238L140.699 118.407C140.956 118.411 141.209 118.497 141.424 118.653C141.638 118.81 141.804 119.029 141.9 119.283L142.835 121.768C143.083 122.554 143.486 123.282 144.019 123.903C144.551 124.525 145.2 125.025 145.923 125.37C148.705 126.629 152.261 125.413 153.71 124.808C154.856 123.278 155.871 121.644 156.743 119.924C157.434 118.443 158.332 117.084 159.409 115.889L158.5 113.476ZM140.162 121.797L139.875 121.034L131.776 120.907L134.169 127.263L140.162 121.797ZM149.33 120.01C150.064 120.2 150.827 120.16 151.524 119.896C152.459 119.542 153.207 118.81 153.604 117.86C154.002 116.911 154.016 115.822 153.644 114.833C153.366 114.096 152.888 113.453 152.27 112.986C151.652 112.52 150.922 112.251 150.172 112.212C149.422 112.174 148.685 112.369 148.056 112.771C147.427 113.174 146.933 113.767 146.636 114.475C146.34 115.184 146.255 115.975 146.391 116.75C146.527 117.524 146.879 118.248 147.403 118.828C147.926 119.408 148.597 119.819 149.33 120.01ZM149.079 115.382C149.221 115.172 149.42 115.013 149.652 114.925C149.964 114.807 150.312 114.825 150.62 114.974C150.928 115.124 151.171 115.393 151.295 115.723C151.387 115.969 151.409 116.235 151.357 116.488C151.305 116.742 151.181 116.97 151.002 117.146C150.823 117.321 150.596 117.435 150.35 117.474C150.104 117.512 149.851 117.473 149.621 117.361C149.391 117.25 149.196 117.071 149.06 116.847C148.924 116.623 148.853 116.364 148.856 116.103C148.86 115.843 148.937 115.591 149.079 115.382ZM132.045 114.496C126.777 116.492 122.112 120.597 115.414 129.131L113.436 127.415C120.435 118.496 125.391 114.177 131.11 112.01C137.236 109.689 144.616 111.173 144.929 111.237L144.523 113.827C144.453 113.812 137.511 112.425 132.045 114.496ZM127.339 123.38L126.403 120.894C125.72 121.149 125.131 121.609 124.706 122.217C124.281 122.826 124.04 123.557 124.012 124.32C123.983 125.084 124.169 125.848 124.546 126.519C124.923 127.189 125.476 127.737 126.135 128.096C125.877 128.803 125.824 129.58 125.983 130.333C126.141 131.086 126.506 131.783 127.03 132.337C127.555 132.891 128.217 133.28 128.937 133.454C129.657 133.629 130.402 133.583 131.082 133.322L130.146 130.836C129.835 130.954 129.487 130.937 129.179 130.787C128.871 130.637 128.628 130.368 128.504 130.039C128.38 129.709 128.385 129.346 128.517 129.029C128.65 128.713 128.899 128.469 129.211 128.351L128.275 125.865C127.963 125.983 127.615 125.965 127.307 125.816C126.999 125.666 126.756 125.397 126.632 125.067C126.508 124.738 126.513 124.375 126.645 124.058C126.778 123.742 127.027 123.498 127.339 123.38ZM121.467 125.605L122.403 128.09C122.091 128.208 121.842 128.452 121.709 128.769C121.577 129.085 121.572 129.448 121.696 129.778C121.82 130.108 122.063 130.377 122.371 130.526C122.679 130.676 123.027 130.694 123.339 130.576L124.274 133.061C123.34 133.416 122.296 133.362 121.372 132.913C120.448 132.465 119.72 131.657 119.347 130.668C118.975 129.679 118.989 128.59 119.387 127.641C119.784 126.691 120.532 125.959 121.467 125.605ZM116.531 130.315L114.182 131.205L115.118 133.691L117.467 132.801L116.531 130.315ZM109.484 132.985L111.833 132.095L112.769 134.58L110.42 135.47L109.484 132.985ZM70.7516 215.089C71.1143 215.75 71.2916 216.502 71.2635 217.258C71.3364 218.013 71.2037 218.771 70.8806 219.446C70.5575 220.122 70.057 220.688 69.4359 221.081L69.4778 222.496C69.9861 222.67 70.44 222.984 70.7899 223.406C71.1398 223.827 71.3722 224.338 71.4617 224.884C71.5512 225.43 71.4944 225.99 71.2974 226.501C71.1005 227.013 70.771 227.457 70.345 227.785C69.919 228.114 69.4128 228.313 68.8818 228.362C68.3509 228.412 67.8155 228.308 67.3343 228.064C66.8531 227.82 66.4445 227.444 66.1532 226.978C65.8619 226.511 65.6992 225.972 65.6827 225.42L67.6223 225.379C67.6282 225.578 67.6908 225.771 67.8023 225.934C67.9137 226.097 68.069 226.223 68.2485 226.295C68.428 226.368 68.6235 226.384 68.8105 226.341C68.9975 226.298 69.1675 226.199 69.2989 226.056C69.4304 225.912 69.5175 225.731 69.5491 225.536C69.5808 225.34 69.5556 225.138 69.4767 224.956C69.3979 224.774 69.2689 224.619 69.1062 224.512C68.9434 224.405 68.7542 224.35 68.5624 224.354C68.3052 224.359 68.0554 224.259 67.8679 224.074C67.6804 223.889 67.5707 223.636 67.5628 223.369L67.4962 221.121C66.8527 220.755 66.3192 220.21 65.9565 219.549C65.5939 218.887 65.4165 218.135 65.4446 217.379C65.3718 216.625 65.5044 215.867 65.8275 215.191C66.1506 214.515 66.6512 213.949 67.2723 213.557L66.5325 188.568C66.1447 189.145 65.6539 189.641 65.0861 190.027C63.8625 190.807 62.3916 191.068 60.9767 190.756C61.1393 191.789 61.0915 192.845 60.8362 193.853C60.5809 194.862 60.1239 195.802 59.4945 196.612C57.5679 198.958 54.3574 199.471 52.5591 199.565C53.2179 202.575 52.8585 204.922 51.4871 206.555C49.738 208.638 46.8284 208.922 45.0872 208.88C45.6614 211.688 45.2811 213.921 43.9507 215.528C42.2306 217.607 39.3416 218.065 37.3594 218.106L37.3273 218.106C37.853 219.176 38.0948 220.368 38.0278 221.56C37.9607 222.752 37.5872 223.901 36.9458 224.887C37.5143 225.24 38.1795 225.383 38.8325 225.294C39.4856 225.205 40.0877 224.889 40.5403 224.397L40.9765 223.921L39.684 222.647C39.4966 222.463 39.3869 222.209 39.379 221.943C39.3711 221.676 39.4657 221.418 39.6419 221.226L44.3422 216.1C44.5185 215.908 44.762 215.797 45.0191 215.792C45.2763 215.786 45.5261 215.887 45.7135 216.072L49.7118 220.012C49.8992 220.196 50.0089 220.45 50.0168 220.716C50.0247 220.983 49.9301 221.24 49.7539 221.433L45.0536 226.559C44.8773 226.751 44.6338 226.862 44.3766 226.867C44.1195 226.873 43.8697 226.772 43.6823 226.587L42.3898 225.314L41.9566 225.789C41.1573 226.666 40.0737 227.208 38.9088 227.313C37.7439 227.418 36.5774 227.079 35.628 226.359C34.5463 227.25 33.2118 227.751 31.8239 227.787C30.4359 227.823 29.0692 227.393 27.9279 226.56L19.1366 236.148C18.9603 236.34 18.7168 236.451 18.4596 236.456C18.2024 236.462 17.9527 236.361 17.7652 236.176L13.767 232.236C13.5796 232.052 13.4699 231.798 13.462 231.532C13.4541 231.265 13.5487 231.007 13.7249 230.815L25.281 218.212L16.9915 210.043C16.7019 209.758 16.4687 209.417 16.3053 209.04C16.1419 208.662 16.0515 208.256 16.0393 207.844C16.0271 207.432 16.0934 207.023 16.2342 206.639C16.3751 206.255 16.5878 205.905 16.8602 205.608C17.4196 205.025 18.1768 204.69 18.9742 204.674C19.7717 204.657 20.5478 204.96 21.141 205.519L29.4743 213.731L64.5603 177.445C64.7386 177.26 64.9807 177.155 65.2347 177.154C65.4886 177.152 65.7342 177.253 65.9186 177.436L67.9177 179.406C68.1052 179.591 68.215 179.844 68.2229 180.111L69.2119 213.516C69.8555 213.883 70.3889 214.427 70.7516 215.089ZM47.6758 220.765L45.091 218.218L41.7199 221.894L44.3048 224.441L47.6758 220.765ZM18.0742 208.234C18.1329 208.37 18.2167 208.492 18.3208 208.595L23.6115 213.808L25.1024 212.182L19.8117 206.969C19.7076 206.866 19.5853 206.786 19.4517 206.732C19.318 206.678 19.1757 206.652 19.0329 206.655C18.7444 206.661 18.4713 206.785 18.2736 207.001C18.1757 207.107 18.0993 207.233 18.0487 207.371C17.9981 207.509 17.9743 207.656 17.9787 207.804C17.983 207.952 18.0155 208.098 18.0742 208.234ZM26.5158 213.575L25.0249 215.201L26.6102 216.763L28.1011 215.137L26.5158 213.575ZM15.8029 231.483L18.3878 234.03L31.1593 220.102L28.5745 217.555L15.8029 231.483ZM31.6327 222.52L29.2741 225.092C30.0148 225.555 30.8654 225.79 31.7258 225.771C32.5863 225.751 33.4209 225.478 34.1316 224.982L31.6327 222.52ZM32.9619 221.07L35.4608 223.533C35.9025 222.772 36.1239 221.894 36.0991 221.002C36.0742 220.11 35.8041 219.241 35.3205 218.498L32.9619 221.07ZM37.3046 216.092C38.9243 216.063 41.222 215.728 42.4773 214.207C43.3869 213.103 43.6215 211.458 43.1924 209.32L37.3046 216.092ZM45.3169 206.872C46.7156 206.881 48.8393 206.636 50.0231 205.222C50.8863 204.193 51.1313 202.634 50.7797 200.592L45.3169 206.872ZM53.5096 197.451C55.2172 197.311 56.8149 196.547 58.0184 195.295C58.4589 194.704 58.7777 194.025 58.9556 193.3C59.1335 192.574 59.1666 191.817 59.053 191.074L53.5096 197.451ZM29.9227 216.124L32.4696 218.634L65.8999 180.182L65.2772 179.569L29.9227 216.124ZM62.6025 188.837C63.1066 188.769 63.5914 188.597 64.0286 188.332C65.2653 187.491 66.006 185.602 66.2237 182.826L61.0932 188.728C61.5854 188.868 62.0985 188.904 62.6025 188.837ZM67.3843 217.339C67.4206 218.566 68.0179 219.337 68.4136 219.329C68.8093 219.321 69.3602 218.526 69.3239 217.298C69.2876 216.071 68.6902 215.3 68.2946 215.308C67.8989 215.317 67.3479 216.112 67.3843 217.339ZM218.347 35.5177C221.075 36.2674 223.137 33.5263 223.969 30.4782C224.74 27.6536 223.867 26.0603 221.135 25.3096C218.403 24.5588 216.842 25.4829 216.07 28.3075C215.238 31.3556 215.619 34.768 218.347 35.5177ZM220.577 27.3512C222.219 27.8024 222.458 28.2369 221.994 29.9355C221.546 31.577 220.354 33.8744 218.905 33.4761C217.455 33.0778 217.597 30.4916 218.045 28.8502C218.509 27.1515 218.935 26.9 220.577 27.3512ZM212.109 70.0185C210.309 76.613 203.399 81.8912 193.675 79.2191C186.053 77.1244 181.728 68.5513 184.034 60.1082L187.658 46.8376C187.713 46.6357 187.825 46.4543 187.979 46.3163C188.134 46.1783 188.324 46.0899 188.525 46.0622C188.727 46.0345 188.931 46.0689 189.111 46.1608C189.292 46.2528 189.441 46.3984 189.541 46.579L195.209 56.9162C195.308 57.0969 195.353 57.3046 195.337 57.5131C195.321 57.7215 195.245 57.9214 195.119 58.0874C194.994 58.2533 194.824 58.378 194.631 58.4455C194.438 58.5131 194.23 58.5205 194.035 58.4669L191.073 57.6529L189.958 61.7362C188.575 66.8015 190.993 71.8973 195.348 73.0942C199.77 74.3095 204.838 73.3261 206.185 68.3905L210.976 50.8488C210.561 50.558 210.225 50.1645 209.997 49.7036C209.769 49.2428 209.657 48.729 209.67 48.2086C209.684 47.6882 209.823 47.1775 210.075 46.7224C210.327 46.2674 210.684 45.8822 211.114 45.6016C210.885 45.1401 210.773 44.6255 210.787 44.1043C210.801 43.5832 210.941 43.0717 211.194 42.6163C211.446 42.1608 211.805 41.7755 212.236 41.4953C212.667 41.2151 213.157 41.0488 213.662 41.0112L214.192 39.0717C213.938 38.1932 213.631 37.2934 213.331 36.4208C211.991 32.521 210.612 28.4832 213.474 24.3687C214.469 22.9879 215.846 21.9474 217.42 21.3869C218.993 20.8265 220.689 20.7731 222.278 21.2338L222.343 21.2517C227.22 22.6336 229.304 26.489 227.919 31.5634C227.059 34.7094 224.6 36.8134 222.216 38.852L222.202 38.8641C221.502 39.4564 220.781 40.0735 220.115 40.7048L219.585 42.6444C220 42.9351 220.337 43.3287 220.564 43.7895C220.792 44.2504 220.904 44.7641 220.891 45.2845C220.877 45.8049 220.738 46.3157 220.486 46.7707C220.234 47.2258 219.877 47.611 219.447 47.8916C219.674 48.3528 219.786 48.8667 219.771 49.3871C219.757 49.9075 219.617 50.4181 219.365 50.8728C219.112 51.3275 218.755 51.7122 218.324 51.9922C217.894 52.2722 217.405 52.4387 216.9 52.4768L212.109 70.0185ZM218.122 23.3758C216.937 23.7851 215.895 24.554 215.136 25.5803C212.908 28.7855 214 31.9796 215.262 35.6736L215.268 35.691L215.272 35.7028L215.272 35.703L215.272 35.7034C215.612 36.6965 215.964 37.7233 216.245 38.7591L216.323 39.0427L215.687 41.3712L217.662 41.9139L218.298 39.5854L218.508 39.381C219.277 38.6337 220.101 37.9299 220.898 37.2491L220.908 37.2409L220.91 37.2388C223.148 35.3294 225.259 33.5269 225.944 31.0208C227.014 27.1008 225.535 24.3557 221.769 23.289C220.579 22.9363 219.307 22.9666 218.122 23.3758ZM218.092 44.2268L214.142 43.1415C213.88 43.0695 213.6 43.1081 213.362 43.2486C213.125 43.3892 212.95 43.6202 212.876 43.891C212.802 44.1617 212.835 44.4499 212.968 44.6923C213.101 44.9346 213.323 45.1111 213.585 45.1831L217.534 46.2684C217.796 46.3404 218.076 46.3019 218.314 46.1613C218.551 46.0208 218.726 45.7897 218.8 45.519C218.874 45.2482 218.841 44.96 218.708 44.7177C218.575 44.4753 218.353 44.2988 218.092 44.2268ZM216.976 48.3101L213.027 47.2247C212.765 47.1528 212.485 47.1913 212.247 47.3319C212.01 47.4724 211.835 47.7035 211.761 47.9742C211.687 48.245 211.72 48.5332 211.853 48.7755C211.986 49.0178 212.208 49.1944 212.469 49.2664L216.419 50.3517C216.681 50.4237 216.961 50.3851 217.199 50.2446C217.436 50.104 217.611 49.873 217.685 49.6022C217.759 49.3315 217.726 49.0433 217.593 48.8009C217.46 48.5586 217.238 48.382 216.976 48.3101ZM192.209 55.7703L188.96 49.8445L186.009 60.6508C184.01 67.968 187.699 75.382 194.233 77.1775C200.611 78.9303 208.121 76.8482 210.135 69.4759L214.874 52.122L212.899 51.5793L208.16 68.9332C206.683 74.3435 201.185 76.8933 194.79 75.1358C189.346 73.6397 186.293 67.3848 187.983 61.1935L189.377 56.0894C189.451 55.8187 189.626 55.5876 189.864 55.4471C190.101 55.3065 190.381 55.268 190.643 55.34L192.209 55.7703ZM53.9974 55.8017C51.681 45.4113 44.4648 34.5887 37.4888 33.0745L33.3696 18.2499C33.1832 17.5824 32.7955 17.0038 32.2851 16.6316C31.7747 16.2593 31.1797 16.1211 30.6209 16.2451C30.062 16.3691 29.581 16.746 29.2753 17.2993C28.9697 17.8526 28.8623 18.541 28.975 19.2249L31.5419 34.3977C25.8757 38.7589 23.9424 51.634 26.2587 62.0244C28.761 73.2487 34.9737 77.2435 40.8764 77.3448L44.4218 93.2485C44.4982 93.5914 44.6839 93.8951 44.9381 94.0927C45.1922 94.2903 45.4939 94.3656 45.7769 94.3021L50.0444 93.3448C50.3273 93.2813 50.5683 93.0842 50.7143 92.7968C50.8604 92.5095 50.8994 92.1554 50.823 91.8125L47.2776 75.9088C52.5749 73.2949 56.4996 67.026 53.9974 55.8017ZM28.3925 61.5457L51.8636 56.2803C52.0533 57.145 52.2045 58.0175 52.3163 58.894L29.0927 64.1039C28.8217 63.2631 28.588 62.4091 28.3925 61.5457ZM31.1416 18.914L31.1566 18.9107C31.1962 18.9044 31.2354 18.8956 31.2739 18.8843L35.1773 32.9265C34.6297 32.9755 34.0932 33.0958 33.577 33.2855L31.1416 18.914ZM34.9397 35.6394C40.9141 34.2991 48.2205 43.9583 51.1804 53.7183L27.9227 58.9358C26.4564 48.8408 28.9652 36.9797 34.9397 35.6394ZM48.401 90.9982L46.2673 91.4768L43.0859 77.2062C43.4483 77.1534 43.8093 77.0942 44.1635 77.0147C44.5177 76.9353 44.8694 76.8346 45.2197 76.7275L48.401 90.9982ZM43.587 74.4288C37.6573 75.759 32.8223 72.8739 30.0298 66.609L52.5322 61.5609C52.6714 68.4211 49.5166 73.0985 43.587 74.4288ZM46.9336 49.2405L44.7998 49.7192L45.3763 52.3051L47.51 51.8265L46.9336 49.2405ZM44.3702 47.5306L46.2148 46.2575C46.0431 45.9348 41.9576 38.3416 36.8541 37.966L36.8948 40.5907C40.7464 40.8744 44.2713 47.349 44.3684 47.5274L44.3702 47.5306ZM40.7907 66.9103L38.6569 67.3889L39.2334 69.9749L41.3671 69.4962L40.7907 66.9103ZM34.3894 68.3463L36.5232 67.8676L37.0997 70.4536L34.9659 70.9323L34.3894 68.3463ZM192.011 199.612C192.617 199.506 193.251 199.576 193.834 199.811C194.616 200.126 195.25 200.717 195.597 201.454C195.944 202.191 195.975 203.013 195.684 203.74C195.466 204.282 195.081 204.742 194.577 205.062C194.072 205.382 193.471 205.547 192.849 205.537C192.227 205.527 191.613 205.342 191.083 205.006C190.554 204.669 190.133 204.196 189.874 203.647C189.616 203.097 189.531 202.496 189.63 201.919C189.729 201.341 190.009 200.814 190.432 200.403C190.856 199.993 191.406 199.717 192.011 199.612ZM191.885 203.09C192.007 203.255 192.175 203.386 192.37 203.464C192.63 203.569 192.919 203.574 193.172 203.477C193.425 203.38 193.621 203.189 193.718 202.947C193.791 202.766 193.804 202.567 193.756 202.373C193.708 202.179 193.602 202 193.45 201.859C193.298 201.717 193.108 201.619 192.903 201.578C192.698 201.536 192.488 201.552 192.3 201.625C192.111 201.697 191.952 201.822 191.843 201.984C191.734 202.145 191.68 202.337 191.688 202.534C191.695 202.731 191.764 202.924 191.885 203.09ZM232.622 202.728L234.587 203.521L233.855 205.347L231.889 204.554L232.622 202.728ZM224.334 229.093L222.369 228.3L221.637 230.126L223.602 230.919L224.334 229.093ZM238.151 206.02C238.635 204.809 238.582 203.439 238.005 202.211C237.427 200.984 236.371 199.998 235.069 199.471L199.693 185.198C199.463 185.106 199.21 185.091 198.979 185.157L175.798 191.719C175.653 191.76 175.521 191.832 175.412 191.928C175.302 192.025 175.217 192.144 175.163 192.278L172.967 197.758C172.913 197.891 172.892 198.036 172.904 198.182C172.917 198.328 172.963 198.471 173.039 198.602L185.235 219.437C185.356 219.645 185.549 219.81 185.779 219.903L221.155 234.176C222.373 234.668 223.716 234.723 224.925 234.329C226.134 233.935 227.121 233.12 227.695 232.043C228.269 230.965 228.389 229.702 228.032 228.499C227.675 227.296 226.866 226.238 225.762 225.531L232.427 208.909C233.621 209.145 234.842 208.986 235.885 208.46C236.928 207.933 237.728 207.072 238.151 206.02ZM211.735 192.179L229.423 199.315L228.691 201.142L211.003 194.006L211.735 192.179ZM192.448 189.113L195.105 194.754L188.665 196.578L186.01 190.938L192.448 189.113ZM197.584 201.013L199.887 200.131L205.376 202.345L201.714 211.478L196.225 209.264L195.173 207.028L193.265 207.759L194.498 210.378C194.614 210.624 194.825 210.821 195.086 210.926L200.982 213.305L200.25 215.131L192.744 212.103L185.427 199.602L199.335 195.664L206.841 198.692L206.108 200.519L200.212 198.14C199.952 198.035 199.663 198.03 199.41 198.127L196.712 199.161L197.584 201.013ZM175.103 198.123L176.957 193.498L184.019 191.501L186.675 197.143L183.544 198.027C183.399 198.068 183.267 198.14 183.157 198.236C183.048 198.333 182.963 198.452 182.909 198.586C182.856 198.72 182.834 198.865 182.847 199.011C182.859 199.157 182.905 199.3 182.982 199.43L184.63 202.245L178.82 204.469L175.103 198.123ZM179.865 206.256L185.674 204.031L189.061 209.82L183.25 212.046L179.865 206.256ZM216.974 230.367L199.286 223.23L200.018 221.404L217.706 228.54L216.974 230.367ZM225.934 230.799C225.642 231.525 225.052 232.097 224.293 232.388C223.534 232.678 222.669 232.665 221.887 232.349L218.939 231.16L220.404 227.507L198.785 218.784L197.32 222.437L186.867 218.22L184.299 213.833L186.352 213.047L188.692 216.622C188.815 216.809 188.996 216.957 189.209 217.043L192.157 218.232L192.889 216.406L190.268 215.348L188.278 212.309L190.109 211.607L191.112 213.32C191.234 213.529 191.426 213.693 191.656 213.786L224.084 226.869C224.866 227.185 225.5 227.776 225.847 228.513C226.194 229.25 226.225 230.072 225.934 230.799ZM202.215 215.924L208.806 199.485L212.737 201.071L206.146 217.51L202.215 215.924ZM217.168 207.103L213.506 216.236L209.576 214.65L213.237 205.517L217.168 207.103ZM213.97 203.691L214.702 201.864L218.633 203.45L217.9 205.276L213.97 203.691ZM212.774 218.062L212.042 219.889L208.111 218.303L208.843 216.476L212.774 218.062ZM214.007 220.682L220.598 204.243L224.529 205.829L217.938 222.268L214.007 220.682ZM221.368 219.408L225.029 210.275L226.995 211.068L227.727 209.241L225.762 208.448L226.494 206.622L230.425 208.207L223.834 224.646L219.903 223.061L220.635 221.234L222.601 222.027L223.333 220.2L221.368 219.408ZM232.14 206.777L199.712 193.694C199.482 193.601 199.229 193.587 198.998 193.652L197.091 194.192L196.254 192.414L199.788 191.603L202.409 192.66L203.141 190.834L200.193 189.644C199.981 189.559 199.748 189.539 199.531 189.589L195.374 190.543L194.436 188.55L199.316 187.168L209.77 191.386L208.305 195.039L229.924 203.761L231.389 200.108L234.337 201.298C235.118 201.613 235.753 202.204 236.099 202.941C236.446 203.678 236.477 204.5 236.186 205.227C235.895 205.954 235.305 206.525 234.546 206.816C233.787 207.107 232.921 207.093 232.14 206.777ZM182.955 193.61L183.827 195.462L180.176 196.861L179.746 197.932L181.415 201.477L179.508 202.208L177.659 198.279C177.543 198.033 177.532 197.759 177.63 197.517L178.362 195.69C178.459 195.448 178.656 195.258 178.909 195.161L182.955 193.61ZM205.107 191.627L207.072 192.42L206.34 194.246L204.375 193.453L205.107 191.627ZM196.82 217.991L194.854 217.199L194.122 219.025L196.087 219.818L196.82 217.991ZM242.657 123.709C242.447 123.709 242.241 123.641 242.066 123.514C241.891 123.387 241.755 123.205 241.675 122.994C241.594 122.782 241.573 122.549 241.614 122.324C241.655 122.099 241.756 121.892 241.905 121.73C242.054 121.568 242.243 121.458 242.45 121.413C242.656 121.368 242.87 121.391 243.064 121.479C243.258 121.567 243.424 121.715 243.541 121.906C243.658 122.096 243.72 122.321 243.72 122.55C243.72 122.857 243.608 123.152 243.409 123.37C243.21 123.587 242.939 123.709 242.657 123.709ZM233.55 134.857C234.056 135.169 234.632 135.323 235.214 135.303C235.796 135.324 236.371 135.17 236.878 134.857C237.673 134.392 238.565 134.159 239.467 134.179V136.497C238.885 136.476 238.309 136.631 237.802 136.944C237.007 137.408 236.116 137.642 235.214 137.622C234.312 137.641 233.42 137.408 232.625 136.944C232.118 136.631 231.542 136.477 230.96 136.497C230.379 136.477 229.805 136.632 229.299 136.944C228.502 137.408 227.61 137.642 226.707 137.622V135.303C227.288 135.323 227.863 135.169 228.369 134.857C229.165 134.392 230.058 134.159 230.96 134.179C231.863 134.159 232.754 134.393 233.55 134.857ZM235.214 128.347C234.635 128.367 234.062 128.208 233.562 127.889C232.767 127.41 231.869 127.168 230.96 127.187C230.051 127.168 229.154 127.41 228.357 127.889C227.858 128.208 227.286 128.367 226.707 128.347V130.666C227.616 130.685 228.514 130.443 229.31 129.964C229.81 129.645 230.382 129.486 230.96 129.506C231.54 129.486 232.113 129.645 232.614 129.964C233.409 130.443 234.306 130.685 235.214 130.666C236.123 130.687 237.022 130.447 237.819 129.97C238.317 129.649 238.889 129.488 239.467 129.506V127.187C238.559 127.168 237.662 127.41 236.866 127.889C236.366 128.209 235.793 128.368 235.214 128.347ZM232.625 123.031C232.118 122.719 231.542 122.564 230.96 122.585C230.379 122.565 229.805 122.719 229.299 123.031C228.502 123.496 227.61 123.729 226.707 123.709V121.391C227.288 121.411 227.863 121.256 228.369 120.944C229.165 120.48 230.058 120.246 230.96 120.266C231.863 120.247 232.754 120.48 233.55 120.944C234.056 121.257 234.632 121.411 235.214 121.391C235.793 121.41 236.367 121.256 236.872 120.944L237.801 123.031C237.006 123.496 236.115 123.729 235.214 123.709C234.312 123.729 233.42 123.495 232.625 123.031ZM230.96 115.594C231.54 115.574 232.113 115.733 232.614 116.052C233.409 116.53 234.306 116.772 235.214 116.753C236.123 116.775 237.022 116.535 237.819 116.057C238.317 115.736 238.889 115.575 239.467 115.594V113.275C238.559 113.256 237.662 113.498 236.866 113.976C236.366 114.297 235.793 114.455 235.214 114.434C234.635 114.454 234.062 114.296 233.562 113.976C232.767 113.498 231.869 113.256 230.96 113.275C230.051 113.256 229.154 113.498 228.357 113.976C227.858 114.295 227.286 114.454 226.707 114.434V116.753C227.616 116.772 228.514 116.53 229.31 116.052C229.81 115.733 230.382 115.574 230.96 115.594ZM233.562 141.796C234.062 142.117 234.634 142.278 235.214 142.259C235.794 142.279 236.367 142.118 236.866 141.796C237.662 141.319 238.559 141.079 239.467 141.1V143.419C238.887 143.399 238.314 143.56 237.815 143.883C237.019 144.359 236.122 144.599 235.214 144.578C234.306 144.599 233.41 144.359 232.614 143.883C232.114 143.561 231.541 143.401 230.96 143.419C230.381 143.401 229.809 143.562 229.31 143.883C228.514 144.359 227.616 144.599 226.707 144.578V142.259C227.286 142.277 227.858 142.117 228.357 141.796C229.154 141.319 230.052 141.079 230.96 141.1C231.869 141.079 232.766 141.319 233.562 141.796ZM10.7862 129.506H8.65955V131.825H10.7862V129.506ZM1.71393 130.55L6.13417 134.398C6.3063 134.548 6.43141 134.752 6.49218 134.983C6.55296 135.214 6.5464 135.46 6.47342 135.687C6.40044 135.914 6.26465 136.11 6.08481 136.249C5.90497 136.388 5.68999 136.463 5.46959 136.462H0.897301C3.3238 140.338 11.2115 143.419 17.1661 143.419C18.612 143.455 20.0523 143.211 21.4194 142.696V125.591C20.0523 125.077 18.612 124.832 17.1661 124.869C11.5241 124.869 4.81033 127.39 1.71393 130.55ZM136.25 243.625H141.875V245.344H136.25V243.625ZM113.75 226.438H136.25V228.156H113.75V226.438ZM108.125 245.344V243.625H113.75V245.344H108.125ZM125.938 231.594H124.062V233.312H125.938V231.594ZM127.812 231.594H129.688V233.312H127.812V231.594ZM122.188 231.594H120.312V233.312H122.188V231.594Z" fill="#F7F7F7"/>
</svg>
